<svg width="1512" height="854" xmlns="http://www.w3.org/2000/svg" xmlns:xlink="http://www.w3.org/1999/xlink" xml:space="preserve" overflow="hidden"><defs><clipPath id="clip0"><rect x="723" y="243" width="1512" height="854"/></clipPath><clipPath id="clip1"><rect x="792" y="262" width="1324" height="706"/></clipPath><clipPath id="clip2"><rect x="792" y="262" width="1324" height="706"/></clipPath><clipPath id="clip3"><rect x="792" y="262" width="1324" height="706"/></clipPath><clipPath id="clip4"><rect x="792" y="262" width="1324" height="706"/></clipPath><clipPath id="clip5"><rect x="792" y="262" width="1324" height="706"/></clipPath><clipPath id="clip6"><rect x="995" y="289" width="1021" height="513"/></clipPath><clipPath id="clip7"><rect x="792" y="262" width="1324" height="706"/></clipPath><clipPath id="clip8"><rect x="995" y="289" width="1021" height="513"/></clipPath><clipPath id="clip9"><rect x="792" y="262" width="1324" height="706"/></clipPath><clipPath id="clip10"><rect x="792" y="262" width="1324" height="706"/></clipPath><clipPath id="clip11"><rect x="792" y="262" width="1324" height="706"/></clipPath><clipPath id="clip12"><rect x="792" y="262" width="1324" height="706"/></clipPath><clipPath id="clip13"><rect x="792" y="262" width="1324" height="706"/></clipPath><clipPath id="clip14"><rect x="792" y="262" width="1324" height="706"/></clipPath><clipPath id="clip15"><rect x="792" y="262" width="1324" height="706"/></clipPath><clipPath id="clip16"><rect x="792" y="262" width="1324" height="706"/></clipPath><clipPath id="clip17"><rect x="792" y="262" width="1324" height="706"/></clipPath><clipPath id="clip18"><rect x="792" y="262" width="1324" height="706"/></clipPath><clipPath id="clip19"><rect x="792" y="262" width="1324" height="706"/></clipPath><clipPath id="clip20"><rect x="792" y="262" width="1324" height="706"/></clipPath><clipPath id="clip21"><rect x="792" y="262" width="1324" height="706"/></clipPath><clipPath id="clip22"><rect x="792" y="262" width="1324" height="706"/></clipPath><clipPath id="clip23"><rect x="792" y="262" width="1324" height="706"/></clipPath><clipPath id="clip24"><rect x="792" y="262" width="1324" height="706"/></clipPath><clipPath id="clip25"><rect x="792" y="262" width="1324" height="706"/></clipPath><clipPath id="clip26"><rect x="792" y="262" width="1324" height="706"/></clipPath><clipPath id="clip27"><rect x="792" y="262" width="1324" height="706"/></clipPath><clipPath id="clip28"><rect x="792" y="262" width="1324" height="706"/></clipPath><clipPath id="clip29"><rect x="792" y="262" width="1324" height="706"/></clipPath></defs><g clip-path="url(#clip0)" transform="translate(-723 -243)"><rect x="731" y="243" width="1495" height="838" fill="#FFFFFF"/><g clip-path="url(#clip1)"><rect x="995.5" y="289.5" width="1018" height="510" stroke="#000000" stroke-width="4.58333" stroke-linejoin="round" stroke-miterlimit="10" fill="none"/></g><g clip-path="url(#clip2)"><path d="M0 0 0.000360892 510" stroke="#000000" stroke-width="3.4375" stroke-linejoin="round" stroke-miterlimit="10" fill="none" fill-rule="evenodd" transform="matrix(1 0 0 -1 995.5 799.5)"/></g><g clip-path="url(#clip3)"><path d="M995.5 799.5 1006.53 799.5M995.5 748.525 1006.53 748.525M995.5 697.523 1006.53 697.523M995.5 646.521 1006.53 646.521M995.5 595.52 1006.53 595.52M995.5 544.518 1006.53 544.518M995.5 493.516 1006.53 493.516M995.5 442.515 1006.53 442.515M995.5 391.513 1006.53 391.513M995.5 340.511 1006.53 340.511M995.5 289.5 1006.53 289.5M995.5 799.5 1009.5 799.5M995.5 697.523 1009.5 697.523M995.5 595.52 1009.5 595.52M995.5 493.516 1009.5 493.516M995.5 391.513 1009.5 391.513M995.5 289.5 1009.5 289.5" stroke="#000000" stroke-width="3.4375" stroke-linejoin="round" stroke-miterlimit="10" fill="none"/></g><g clip-path="url(#clip4)"><path d="M995.5 799.5 2013.5 799.5" stroke="#000000" stroke-width="4.58333" stroke-linejoin="round" stroke-miterlimit="10" fill="none" fill-rule="evenodd"/></g><g clip-path="url(#clip5)"><path d="M995.5 784.5 995.5 799.5M1198.54 784.5 1198.54 799.5M1402.55 784.5 1402.55 799.5M1605.55 784.5 1605.55 799.5M1809.56 784.5 1809.56 799.5M2013.5 784.5 2013.5 799.5" stroke="#000000" stroke-width="4.58333" stroke-linejoin="round" stroke-miterlimit="10" fill="none"/></g><g clip-path="url(#clip6)"><path d="M995.5 735.5 1056.53 721.524 1092.54 711.524 1117.54 702.523 1137.54 695.523 1153.54 689.523 1167.54 684.523 1179.54 679.522 1189.54 675.522 1198.54 671.522 1260.54 645.521 1295.54 629.521 1321.54 617.52 1341.54 608.52 1357.54 601.52 1370.55 594.52 1382.55 589.52 1393.55 584.519 1402.55 580.519 1463.55 551.518 1499.55 534.518 1524.55 522.517 1544.55 512.517 1560.55 505.517 1574.55 498.517 1586.55 493.516 1596.55 488.516 1605.55 483.516 1667.55 454.515 1703.56 437.515 1728.56 425.514 1748.56 415.514 1764.56 408.514 1777.56 401.513 1789.56 396.513 1800.56 391.513 1809.56 386.513 1870.56 357.512 1906.56 340.511 1932.56 328.511 1951.56 319.511 1967.56 311.51 1981.57 304.51 1993.57 299.51 2003.57 294.51 2013.5 289.5" stroke="#458DCF" stroke-width="6.875" stroke-linecap="round" stroke-linejoin="round" stroke-miterlimit="10" fill="none"/></g><g clip-path="url(#clip7)"><path d="M1006.88 735.458C1006.88 741.533 1001.95 746.458 995.877 746.458 989.802 746.458 984.878 741.533 984.878 735.458 984.878 729.383 989.802 724.458 995.877 724.458 1001.95 724.458 1006.88 729.383 1006.88 735.458Z" stroke="#458DCF" stroke-width="3.4375" stroke-linejoin="round" stroke-miterlimit="10" fill="#458DCF"/><path d="M1067.88 721.458C1067.88 727.533 1062.95 732.457 1056.88 732.457 1050.8 732.457 1045.88 727.533 1045.88 721.458 1045.88 715.383 1050.8 710.458 1056.88 710.458 1062.95 710.458 1067.88 715.383 1067.88 721.458Z" stroke="#458DCF" stroke-width="3.4375" stroke-linejoin="round" stroke-miterlimit="10" fill="#458DCF"/><path d="M1103.88 711.458C1103.88 717.533 1098.95 722.457 1092.88 722.457 1086.8 722.457 1081.88 717.533 1081.88 711.458 1081.88 705.383 1086.8 700.458 1092.88 700.458 1098.95 700.458 1103.88 705.383 1103.88 711.458Z" stroke="#458DCF" stroke-width="3.4375" stroke-linejoin="round" stroke-miterlimit="10" fill="#458DCF"/><path d="M1128.88 702.458C1128.88 708.533 1123.95 713.458 1117.88 713.458 1111.8 713.458 1106.88 708.533 1106.88 702.458 1106.88 696.383 1111.8 691.458 1117.88 691.458 1123.95 691.458 1128.88 696.383 1128.88 702.458Z" stroke="#458DCF" stroke-width="3.4375" stroke-linejoin="round" stroke-miterlimit="10" fill="#458DCF"/><path d="M1148.88 695.458C1148.88 701.533 1143.95 706.457 1137.88 706.457 1131.8 706.457 1126.88 701.533 1126.88 695.458 1126.88 689.383 1131.8 684.458 1137.88 684.458 1143.95 684.458 1148.88 689.383 1148.88 695.458Z" stroke="#458DCF" stroke-width="3.4375" stroke-linejoin="round" stroke-miterlimit="10" fill="#458DCF"/><path d="M1164.88 689.458C1164.88 695.533 1159.95 700.457 1153.88 700.457 1147.8 700.457 1142.88 695.533 1142.88 689.458 1142.88 683.383 1147.8 678.458 1153.88 678.458 1159.95 678.458 1164.88 683.383 1164.88 689.458Z" stroke="#458DCF" stroke-width="3.4375" stroke-linejoin="round" stroke-miterlimit="10" fill="#458DCF"/><path d="M1178.88 684.458C1178.88 690.533 1173.95 695.457 1167.88 695.457 1161.8 695.457 1156.88 690.533 1156.88 684.458 1156.88 678.383 1161.8 673.458 1167.88 673.458 1173.95 673.458 1178.88 678.383 1178.88 684.458Z" stroke="#458DCF" stroke-width="3.4375" stroke-linejoin="round" stroke-miterlimit="10" fill="#458DCF"/><path d="M1190.88 679.458C1190.88 685.533 1185.95 690.457 1179.88 690.457 1173.8 690.457 1168.88 685.533 1168.88 679.458 1168.88 673.383 1173.8 668.458 1179.88 668.458 1185.95 668.458 1190.88 673.383 1190.88 679.458Z" stroke="#458DCF" stroke-width="3.4375" stroke-linejoin="round" stroke-miterlimit="10" fill="#458DCF"/><path d="M1200.88 675.458C1200.88 681.533 1195.95 686.457 1189.88 686.457 1183.8 686.457 1178.88 681.533 1178.88 675.458 1178.88 669.383 1183.8 664.458 1189.88 664.458 1195.95 664.458 1200.88 669.383 1200.88 675.458Z" stroke="#458DCF" stroke-width="3.4375" stroke-linejoin="round" stroke-miterlimit="10" fill="#458DCF"/><path d="M1209.88 671.458C1209.88 677.533 1204.95 682.458 1198.88 682.458 1192.8 682.458 1187.88 677.533 1187.88 671.458 1187.88 665.383 1192.8 660.458 1198.88 660.458 1204.95 660.458 1209.88 665.383 1209.88 671.458Z" stroke="#458DCF" stroke-width="3.4375" stroke-linejoin="round" stroke-miterlimit="10" fill="#458DCF"/><path d="M1271.88 645.458C1271.88 651.533 1266.95 656.457 1260.88 656.457 1254.8 656.457 1249.88 651.533 1249.88 645.458 1249.88 639.383 1254.8 634.458 1260.88 634.458 1266.95 634.458 1271.88 639.383 1271.88 645.458Z" stroke="#458DCF" stroke-width="3.4375" stroke-linejoin="round" stroke-miterlimit="10" fill="#458DCF"/><path d="M1306.88 629.458C1306.88 635.533 1301.95 640.457 1295.88 640.457 1289.8 640.457 1284.88 635.533 1284.88 629.458 1284.88 623.383 1289.8 618.458 1295.88 618.458 1301.95 618.458 1306.88 623.383 1306.88 629.458Z" stroke="#458DCF" stroke-width="3.4375" stroke-linejoin="round" stroke-miterlimit="10" fill="#458DCF"/><path d="M1332.88 617.458C1332.88 623.533 1327.95 628.457 1321.88 628.457 1315.8 628.457 1310.88 623.533 1310.88 617.458 1310.88 611.383 1315.8 606.458 1321.88 606.458 1327.95 606.458 1332.88 611.383 1332.88 617.458Z" stroke="#458DCF" stroke-width="3.4375" stroke-linejoin="round" stroke-miterlimit="10" fill="#458DCF"/><path d="M1352.88 608.458C1352.88 614.533 1347.95 619.457 1341.88 619.457 1335.8 619.457 1330.88 614.533 1330.88 608.458 1330.88 602.383 1335.8 597.458 1341.88 597.458 1347.95 597.458 1352.88 602.383 1352.88 608.458Z" stroke="#458DCF" stroke-width="3.4375" stroke-linejoin="round" stroke-miterlimit="10" fill="#458DCF"/><path d="M1368.88 601.458C1368.88 607.533 1363.95 612.457 1357.88 612.457 1351.8 612.457 1346.88 607.533 1346.88 601.458 1346.88 595.383 1351.8 590.458 1357.88 590.458 1363.95 590.458 1368.88 595.383 1368.88 601.458Z" stroke="#458DCF" stroke-width="3.4375" stroke-linejoin="round" stroke-miterlimit="10" fill="#458DCF"/><path d="M1381.88 594.458C1381.88 600.533 1376.95 605.458 1370.88 605.458 1364.8 605.458 1359.88 600.533 1359.88 594.458 1359.88 588.383 1364.8 583.458 1370.88 583.458 1376.95 583.458 1381.88 588.383 1381.88 594.458Z" stroke="#458DCF" stroke-width="3.4375" stroke-linejoin="round" stroke-miterlimit="10" fill="#458DCF"/><path d="M1393.88 589.458C1393.88 595.533 1388.95 600.457 1382.88 600.457 1376.8 600.457 1371.88 595.533 1371.88 589.458 1371.88 583.383 1376.8 578.458 1382.88 578.458 1388.95 578.458 1393.88 583.383 1393.88 589.458Z" stroke="#458DCF" stroke-width="3.4375" stroke-linejoin="round" stroke-miterlimit="10" fill="#458DCF"/><path d="M1404.88 584.458C1404.88 590.533 1399.95 595.457 1393.88 595.457 1387.8 595.457 1382.88 590.533 1382.88 584.458 1382.88 578.383 1387.8 573.458 1393.88 573.458 1399.95 573.458 1404.88 578.383 1404.88 584.458Z" stroke="#458DCF" stroke-width="3.4375" stroke-linejoin="round" stroke-miterlimit="10" fill="#458DCF"/><path d="M1413.88 580.458C1413.88 586.533 1408.95 591.457 1402.88 591.457 1396.8 591.457 1391.88 586.533 1391.88 580.458 1391.88 574.383 1396.8 569.458 1402.88 569.458 1408.95 569.458 1413.88 574.383 1413.88 580.458Z" stroke="#458DCF" stroke-width="3.4375" stroke-linejoin="round" stroke-miterlimit="10" fill="#458DCF"/><path d="M1474.88 551.458C1474.88 557.533 1469.95 562.457 1463.88 562.457 1457.8 562.457 1452.88 557.533 1452.88 551.458 1452.88 545.383 1457.8 540.458 1463.88 540.458 1469.95 540.458 1474.88 545.383 1474.88 551.458Z" stroke="#458DCF" stroke-width="3.4375" stroke-linejoin="round" stroke-miterlimit="10" fill="#458DCF"/><path d="M1510.88 534.458C1510.88 540.533 1505.95 545.457 1499.88 545.457 1493.8 545.457 1488.88 540.533 1488.88 534.458 1488.88 528.383 1493.8 523.458 1499.88 523.458 1505.95 523.458 1510.88 528.383 1510.88 534.458Z" stroke="#458DCF" stroke-width="3.4375" stroke-linejoin="round" stroke-miterlimit="10" fill="#458DCF"/><path d="M1535.88 522.458C1535.88 528.533 1530.95 533.457 1524.88 533.457 1518.8 533.457 1513.88 528.533 1513.88 522.458 1513.88 516.383 1518.8 511.458 1524.88 511.458 1530.95 511.458 1535.88 516.383 1535.88 522.458Z" stroke="#458DCF" stroke-width="3.4375" stroke-linejoin="round" stroke-miterlimit="10" fill="#458DCF"/><path d="M1555.88 512.458C1555.88 518.533 1550.95 523.457 1544.88 523.457 1538.8 523.457 1533.88 518.533 1533.88 512.458 1533.88 506.383 1538.8 501.458 1544.88 501.458 1550.95 501.458 1555.88 506.383 1555.88 512.458Z" stroke="#458DCF" stroke-width="3.4375" stroke-linejoin="round" stroke-miterlimit="10" fill="#458DCF"/><path d="M1571.88 505.458C1571.88 511.533 1566.95 516.458 1560.88 516.458 1554.8 516.458 1549.88 511.533 1549.88 505.458 1549.88 499.383 1554.8 494.458 1560.88 494.458 1566.95 494.458 1571.88 499.383 1571.88 505.458Z" stroke="#458DCF" stroke-width="3.4375" stroke-linejoin="round" stroke-miterlimit="10" fill="#458DCF"/><path d="M1585.88 498.458C1585.88 504.533 1580.95 509.457 1574.88 509.457 1568.8 509.457 1563.88 504.533 1563.88 498.458 1563.88 492.383 1568.8 487.458 1574.88 487.458 1580.95 487.458 1585.88 492.383 1585.88 498.458Z" stroke="#458DCF" stroke-width="3.4375" stroke-linejoin="round" stroke-miterlimit="10" fill="#458DCF"/><path d="M1597.88 493.458C1597.88 499.533 1592.95 504.458 1586.88 504.458 1580.8 504.458 1575.88 499.533 1575.88 493.458 1575.88 487.383 1580.8 482.458 1586.88 482.458 1592.95 482.458 1597.88 487.383 1597.88 493.458Z" stroke="#458DCF" stroke-width="3.4375" stroke-linejoin="round" stroke-miterlimit="10" fill="#458DCF"/><path d="M1607.88 488.458C1607.88 494.533 1602.95 499.457 1596.88 499.457 1590.8 499.457 1585.88 494.533 1585.88 488.458 1585.88 482.383 1590.8 477.458 1596.88 477.458 1602.95 477.458 1607.88 482.383 1607.88 488.458Z" stroke="#458DCF" stroke-width="3.4375" stroke-linejoin="round" stroke-miterlimit="10" fill="#458DCF"/><path d="M1616.88 483.458C1616.88 489.533 1611.95 494.458 1605.88 494.458 1599.8 494.458 1594.88 489.533 1594.88 483.458 1594.88 477.383 1599.8 472.458 1605.88 472.458 1611.95 472.458 1616.88 477.383 1616.88 483.458Z" stroke="#458DCF" stroke-width="3.4375" stroke-linejoin="round" stroke-miterlimit="10" fill="#458DCF"/><path d="M1678.88 454.458C1678.88 460.533 1673.95 465.457 1667.88 465.457 1661.8 465.457 1656.88 460.533 1656.88 454.458 1656.88 448.383 1661.8 443.458 1667.88 443.458 1673.95 443.458 1678.88 448.383 1678.88 454.458Z" stroke="#458DCF" stroke-width="3.4375" stroke-linejoin="round" stroke-miterlimit="10" fill="#458DCF"/><path d="M1714.88 437.458C1714.88 443.533 1709.95 448.458 1703.88 448.458 1697.8 448.458 1692.88 443.533 1692.88 437.458 1692.88 431.383 1697.8 426.458 1703.88 426.458 1709.95 426.458 1714.88 431.383 1714.88 437.458Z" stroke="#458DCF" stroke-width="3.4375" stroke-linejoin="round" stroke-miterlimit="10" fill="#458DCF"/><path d="M1739.88 425.458C1739.88 431.533 1734.95 436.457 1728.88 436.457 1722.8 436.457 1717.88 431.533 1717.88 425.458 1717.88 419.383 1722.8 414.458 1728.88 414.458 1734.95 414.458 1739.88 419.383 1739.88 425.458Z" stroke="#458DCF" stroke-width="3.4375" stroke-linejoin="round" stroke-miterlimit="10" fill="#458DCF"/><path d="M1759.88 416.458C1759.88 422.533 1754.95 427.458 1748.88 427.458 1742.8 427.458 1737.88 422.533 1737.88 416.458 1737.88 410.383 1742.8 405.458 1748.88 405.458 1754.95 405.458 1759.88 410.383 1759.88 416.458Z" stroke="#458DCF" stroke-width="3.4375" stroke-linejoin="round" stroke-miterlimit="10" fill="#458DCF"/><path d="M1775.88 408.458C1775.88 414.533 1770.95 419.457 1764.88 419.457 1758.8 419.457 1753.88 414.533 1753.88 408.458 1753.88 402.383 1758.8 397.458 1764.88 397.458 1770.95 397.458 1775.88 402.383 1775.88 408.458Z" stroke="#458DCF" stroke-width="3.4375" stroke-linejoin="round" stroke-miterlimit="10" fill="#458DCF"/><path d="M1788.88 401.458C1788.88 407.533 1783.95 412.457 1777.88 412.457 1771.8 412.457 1766.88 407.533 1766.88 401.458 1766.88 395.383 1771.8 390.458 1777.88 390.458 1783.95 390.458 1788.88 395.383 1788.88 401.458Z" stroke="#458DCF" stroke-width="3.4375" stroke-linejoin="round" stroke-miterlimit="10" fill="#458DCF"/><path d="M1800.88 396.458C1800.88 402.533 1795.95 407.458 1789.88 407.458 1783.8 407.458 1778.88 402.533 1778.88 396.458 1778.88 390.383 1783.8 385.458 1789.88 385.458 1795.95 385.458 1800.88 390.383 1800.88 396.458Z" stroke="#458DCF" stroke-width="3.4375" stroke-linejoin="round" stroke-miterlimit="10" fill="#458DCF"/><path d="M1811.88 391.458C1811.88 397.533 1806.95 402.457 1800.88 402.457 1794.8 402.457 1789.88 397.533 1789.88 391.458 1789.88 385.383 1794.8 380.458 1800.88 380.458 1806.95 380.458 1811.88 385.383 1811.88 391.458Z" stroke="#458DCF" stroke-width="3.4375" stroke-linejoin="round" stroke-miterlimit="10" fill="#458DCF"/><path d="M1820.88 386.458C1820.88 392.533 1815.95 397.457 1809.88 397.457 1803.8 397.457 1798.88 392.533 1798.88 386.458 1798.88 380.383 1803.8 375.458 1809.88 375.458 1815.95 375.458 1820.88 380.383 1820.88 386.458Z" stroke="#458DCF" stroke-width="3.4375" stroke-linejoin="round" stroke-miterlimit="10" fill="#458DCF"/><path d="M1881.88 357.458C1881.88 363.533 1876.95 368.457 1870.88 368.457 1864.8 368.457 1859.88 363.533 1859.88 357.458 1859.88 351.383 1864.8 346.458 1870.88 346.458 1876.95 346.458 1881.88 351.383 1881.88 357.458Z" stroke="#458DCF" stroke-width="3.4375" stroke-linejoin="round" stroke-miterlimit="10" fill="#458DCF"/><path d="M1917.88 340.458C1917.88 346.533 1912.95 351.458 1906.88 351.458 1900.8 351.458 1895.88 346.533 1895.88 340.458 1895.88 334.383 1900.8 329.458 1906.88 329.458 1912.95 329.458 1917.88 334.383 1917.88 340.458Z" stroke="#458DCF" stroke-width="3.4375" stroke-linejoin="round" stroke-miterlimit="10" fill="#458DCF"/><path d="M1943.88 328.458C1943.88 334.533 1938.95 339.458 1932.88 339.458 1926.8 339.458 1921.88 334.533 1921.88 328.458 1921.88 322.383 1926.8 317.458 1932.88 317.458 1938.95 317.458 1943.88 322.383 1943.88 328.458Z" stroke="#458DCF" stroke-width="3.4375" stroke-linejoin="round" stroke-miterlimit="10" fill="#458DCF"/><path d="M1962.88 319.458C1962.88 325.533 1957.95 330.458 1951.88 330.458 1945.8 330.458 1940.88 325.533 1940.88 319.458 1940.88 313.383 1945.8 308.458 1951.88 308.458 1957.95 308.458 1962.88 313.383 1962.88 319.458Z" stroke="#458DCF" stroke-width="3.4375" stroke-linejoin="round" stroke-miterlimit="10" fill="#458DCF"/><path d="M1978.88 311.458C1978.88 317.533 1973.95 322.457 1967.88 322.457 1961.8 322.457 1956.88 317.533 1956.88 311.458 1956.88 305.383 1961.8 300.458 1967.88 300.458 1973.95 300.458 1978.88 305.383 1978.88 311.458Z" stroke="#458DCF" stroke-width="3.4375" stroke-linejoin="round" stroke-miterlimit="10" fill="#458DCF"/><path d="M1992.88 304.458C1992.88 310.533 1987.95 315.457 1981.88 315.457 1975.8 315.457 1970.88 310.533 1970.88 304.458 1970.88 298.383 1975.8 293.458 1981.88 293.458 1987.95 293.458 1992.88 298.383 1992.88 304.458Z" stroke="#458DCF" stroke-width="3.4375" stroke-linejoin="round" stroke-miterlimit="10" fill="#458DCF"/><path d="M2004.88 299.458C2004.88 305.533 1999.95 310.457 1993.88 310.457 1987.8 310.457 1982.88 305.533 1982.88 299.458 1982.88 293.383 1987.8 288.458 1993.88 288.458 1999.95 288.458 2004.88 293.383 2004.88 299.458Z" stroke="#458DCF" stroke-width="3.4375" stroke-linejoin="round" stroke-miterlimit="10" fill="#458DCF"/><path d="M2014.88 294.458C2014.88 300.533 2009.95 305.458 2003.88 305.458 1997.8 305.458 1992.88 300.533 1992.88 294.458 1992.88 288.383 1997.8 283.458 2003.88 283.458 2009.95 283.458 2014.88 288.383 2014.88 294.458Z" stroke="#458DCF" stroke-width="3.4375" stroke-linejoin="round" stroke-miterlimit="10" fill="#458DCF"/><path d="M2024.88 289.458C2024.88 295.533 2019.95 300.457 2013.88 300.457 2007.8 300.457 2002.88 295.533 2002.88 289.458 2002.88 283.383 2007.8 278.458 2013.88 278.458 2019.95 278.458 2024.88 283.383 2024.88 289.458Z" stroke="#458DCF" stroke-width="3.4375" stroke-linejoin="round" stroke-miterlimit="10" fill="#458DCF"/></g><g clip-path="url(#clip8)"><path d="M995.5 739.5 1056.53 725.524 1092.54 714.524 1117.54 705.523 1137.54 698.523 1153.54 692.523 1167.54 687.523 1179.54 682.523 1189.54 678.522 1198.54 674.522 1260.54 647.521 1295.54 631.521 1321.54 619.521 1341.54 610.52 1357.54 603.52 1370.55 596.52 1382.55 591.52 1393.55 586.519 1402.55 582.519 1463.55 552.518 1499.55 535.518 1524.55 523.517 1544.55 514.517 1560.55 506.517 1574.55 500.517 1586.55 494.516 1596.55 489.516 1605.55 484.516 1667.55 455.515 1703.56 438.515 1728.56 426.514 1748.56 416.514 1764.56 409.514 1777.56 402.513 1789.56 396.513 1800.56 391.513 1809.56 387.513 1870.56 358.512 1906.56 340.511 1932.56 328.511 1951.56 319.511 1967.56 311.51 1981.57 304.51 1993.57 299.51 2003.57 294.51 2013.5 289.5" stroke="#E66914" stroke-width="6.875" stroke-linecap="round" stroke-linejoin="round" stroke-miterlimit="10" fill="none"/></g><g clip-path="url(#clip9)"><path d="M1007.38 750.958 984.377 727.958M984.377 750.958 1007.38 727.958" stroke="#E66914" stroke-width="6.875" stroke-linejoin="round" stroke-miterlimit="10" fill="none"/><path d="M1068.38 736.958 1045.38 713.958M1045.38 736.958 1068.38 713.958" stroke="#E66914" stroke-width="6.875" stroke-linejoin="round" stroke-miterlimit="10" fill="none"/><path d="M1104.38 725.958 1081.38 702.958M1081.38 725.958 1104.38 702.958" stroke="#E66914" stroke-width="6.875" stroke-linejoin="round" stroke-miterlimit="10" fill="none"/><path d="M1129.38 716.958 1106.38 693.958M1106.38 716.958 1129.38 693.958" stroke="#E66914" stroke-width="6.875" stroke-linejoin="round" stroke-miterlimit="10" fill="none"/><path d="M1149.38 709.958 1126.38 686.958M1126.38 709.958 1149.38 686.958" stroke="#E66914" stroke-width="6.875" stroke-linejoin="round" stroke-miterlimit="10" fill="none"/><path d="M1165.38 703.958 1142.38 680.958M1142.38 703.958 1165.38 680.958" stroke="#E66914" stroke-width="6.875" stroke-linejoin="round" stroke-miterlimit="10" fill="none"/><path d="M1179.38 698.958 1156.38 675.958M1156.38 698.958 1179.38 675.958" stroke="#E66914" stroke-width="6.875" stroke-linejoin="round" stroke-miterlimit="10" fill="none"/><path d="M1191.38 693.958 1168.38 670.958M1168.38 693.958 1191.38 670.958" stroke="#E66914" stroke-width="6.875" stroke-linejoin="round" stroke-miterlimit="10" fill="none"/><path d="M1201.38 689.958 1178.38 666.958M1178.38 689.958 1201.38 666.958" stroke="#E66914" stroke-width="6.875" stroke-linejoin="round" stroke-miterlimit="10" fill="none"/><path d="M1210.38 685.958 1187.38 662.958M1187.38 685.958 1210.38 662.958" stroke="#E66914" stroke-width="6.875" stroke-linejoin="round" stroke-miterlimit="10" fill="none"/><path d="M1272.38 658.958 1249.38 635.958M1249.38 658.958 1272.38 635.958" stroke="#E66914" stroke-width="6.875" stroke-linejoin="round" stroke-miterlimit="10" fill="none"/><path d="M1307.38 642.958 1284.38 619.958M1284.38 642.958 1307.38 619.958" stroke="#E66914" stroke-width="6.875" stroke-linejoin="round" stroke-miterlimit="10" fill="none"/><path d="M1333.38 630.958 1310.38 607.958M1310.38 630.958 1333.38 607.958" stroke="#E66914" stroke-width="6.875" stroke-linejoin="round" stroke-miterlimit="10" fill="none"/><path d="M1353.38 621.958 1330.38 598.958M1330.38 621.958 1353.38 598.958" stroke="#E66914" stroke-width="6.875" stroke-linejoin="round" stroke-miterlimit="10" fill="none"/><path d="M1369.38 614.958 1346.38 591.958M1346.38 614.958 1369.38 591.958" stroke="#E66914" stroke-width="6.875" stroke-linejoin="round" stroke-miterlimit="10" fill="none"/><path d="M1382.38 607.958 1359.38 584.958M1359.38 607.958 1382.38 584.958" stroke="#E66914" stroke-width="6.875" stroke-linejoin="round" stroke-miterlimit="10" fill="none"/><path d="M1394.38 602.958 1371.38 579.958M1371.38 602.958 1394.38 579.958" stroke="#E66914" stroke-width="6.875" stroke-linejoin="round" stroke-miterlimit="10" fill="none"/><path d="M1405.38 597.958 1382.38 574.958M1382.38 597.958 1405.38 574.958" stroke="#E66914" stroke-width="6.875" stroke-linejoin="round" stroke-miterlimit="10" fill="none"/><path d="M1414.38 593.958 1391.38 570.958M1391.38 593.958 1414.38 570.958" stroke="#E66914" stroke-width="6.875" stroke-linejoin="round" stroke-miterlimit="10" fill="none"/><path d="M1475.38 563.958 1452.38 540.958M1452.38 563.958 1475.38 540.958" stroke="#E66914" stroke-width="6.875" stroke-linejoin="round" stroke-miterlimit="10" fill="none"/><path d="M1511.38 546.958 1488.38 523.958M1488.38 546.958 1511.38 523.958" stroke="#E66914" stroke-width="6.875" stroke-linejoin="round" stroke-miterlimit="10" fill="none"/><path d="M1536.38 534.958 1513.38 511.958M1513.38 534.958 1536.38 511.958" stroke="#E66914" stroke-width="6.875" stroke-linejoin="round" stroke-miterlimit="10" fill="none"/><path d="M1556.38 525.958 1533.38 502.958M1533.38 525.958 1556.38 502.958" stroke="#E66914" stroke-width="6.875" stroke-linejoin="round" stroke-miterlimit="10" fill="none"/><path d="M1572.38 517.958 1549.38 494.958M1549.38 517.958 1572.38 494.958" stroke="#E66914" stroke-width="6.875" stroke-linejoin="round" stroke-miterlimit="10" fill="none"/><path d="M1586.38 511.958 1563.38 488.958M1563.38 511.958 1586.38 488.958" stroke="#E66914" stroke-width="6.875" stroke-linejoin="round" stroke-miterlimit="10" fill="none"/><path d="M1598.38 505.958 1575.38 482.958M1575.38 505.958 1598.38 482.958" stroke="#E66914" stroke-width="6.875" stroke-linejoin="round" stroke-miterlimit="10" fill="none"/><path d="M1608.38 500.958 1585.38 477.958M1585.38 500.958 1608.38 477.958" stroke="#E66914" stroke-width="6.875" stroke-linejoin="round" stroke-miterlimit="10" fill="none"/><path d="M1617.38 496.957 1594.38 473.958M1594.38 496.957 1617.38 473.958" stroke="#E66914" stroke-width="6.875" stroke-linejoin="round" stroke-miterlimit="10" fill="none"/><path d="M1679.38 466.958 1656.38 443.958M1656.38 466.958 1679.38 443.958" stroke="#E66914" stroke-width="6.875" stroke-linejoin="round" stroke-miterlimit="10" fill="none"/><path d="M1715.38 449.958 1692.38 426.958M1692.38 449.958 1715.38 426.958" stroke="#E66914" stroke-width="6.875" stroke-linejoin="round" stroke-miterlimit="10" fill="none"/><path d="M1740.38 437.958 1717.38 414.958M1717.38 437.958 1740.38 414.958" stroke="#E66914" stroke-width="6.875" stroke-linejoin="round" stroke-miterlimit="10" fill="none"/><path d="M1760.38 427.958 1737.38 404.958M1737.38 427.958 1760.38 404.958" stroke="#E66914" stroke-width="6.875" stroke-linejoin="round" stroke-miterlimit="10" fill="none"/><path d="M1776.38 420.958 1753.38 397.958M1753.38 420.958 1776.38 397.958" stroke="#E66914" stroke-width="6.875" stroke-linejoin="round" stroke-miterlimit="10" fill="none"/><path d="M1789.38 413.958 1766.38 390.958M1766.38 413.958 1789.38 390.958" stroke="#E66914" stroke-width="6.875" stroke-linejoin="round" stroke-miterlimit="10" fill="none"/><path d="M1801.38 407.958 1778.38 384.958M1778.38 407.958 1801.38 384.958" stroke="#E66914" stroke-width="6.875" stroke-linejoin="round" stroke-miterlimit="10" fill="none"/><path d="M1812.38 402.958 1789.38 379.958M1789.38 402.958 1812.38 379.958" stroke="#E66914" stroke-width="6.875" stroke-linejoin="round" stroke-miterlimit="10" fill="none"/><path d="M1821.38 398.958 1798.38 375.958M1798.38 398.958 1821.38 375.958" stroke="#E66914" stroke-width="6.875" stroke-linejoin="round" stroke-miterlimit="10" fill="none"/><path d="M1882.38 369.958 1859.38 346.958M1859.38 369.958 1882.38 346.958" stroke="#E66914" stroke-width="6.875" stroke-linejoin="round" stroke-miterlimit="10" fill="none"/><path d="M1918.38 351.958 1895.38 328.958M1895.38 351.958 1918.38 328.958" stroke="#E66914" stroke-width="6.875" stroke-linejoin="round" stroke-miterlimit="10" fill="none"/><path d="M1944.38 339.958 1921.38 316.958M1921.38 339.958 1944.38 316.958" stroke="#E66914" stroke-width="6.875" stroke-linejoin="round" stroke-miterlimit="10" fill="none"/><path d="M1963.38 330.958 1940.38 307.958M1940.38 330.958 1963.38 307.958" stroke="#E66914" stroke-width="6.875" stroke-linejoin="round" stroke-miterlimit="10" fill="none"/><path d="M1979.38 322.958 1956.38 299.958M1956.38 322.958 1979.38 299.958" stroke="#E66914" stroke-width="6.875" stroke-linejoin="round" stroke-miterlimit="10" fill="none"/><path d="M1993.38 315.958 1970.38 292.958M1970.38 315.958 1993.38 292.958" stroke="#E66914" stroke-width="6.875" stroke-linejoin="round" stroke-miterlimit="10" fill="none"/><path d="M2005.38 310.958 1982.38 287.958M1982.38 310.958 2005.38 287.958" stroke="#E66914" stroke-width="6.875" stroke-linejoin="round" stroke-miterlimit="10" fill="none"/><path d="M2015.38 305.958 1992.38 282.958M1992.38 305.958 2015.38 282.958" stroke="#E66914" stroke-width="6.875" stroke-linejoin="round" stroke-miterlimit="10" fill="none"/><path d="M2025.38 300.958 2002.38 277.958M2002.38 300.958 2025.38 277.958" stroke="#E66914" stroke-width="6.875" stroke-linejoin="round" stroke-miterlimit="10" fill="none"/></g><g clip-path="url(#clip10)"><text font-family="Cambria Math,Cambria Math_MSFontService,sans-serif" font-weight="400" font-size="46" transform="matrix(1 0 0 1 928.491 814)">0</text></g><g clip-path="url(#clip11)"><text font-family="Cambria Math,Cambria Math_MSFontService,sans-serif" font-weight="400" font-size="46" transform="matrix(1 0 0 1 893.726 712)">0.2</text></g><g clip-path="url(#clip12)"><text font-family="Cambria Math,Cambria Math_MSFontService,sans-serif" font-weight="400" font-size="46" transform="matrix(1 0 0 1 893.726 611)">0.4</text></g><g clip-path="url(#clip13)"><text font-family="Cambria Math,Cambria Math_MSFontService,sans-serif" font-weight="400" font-size="46" transform="matrix(1 0 0 1 893.726 509)">0.6</text></g><g clip-path="url(#clip14)"><text font-family="Cambria Math,Cambria Math_MSFontService,sans-serif" font-weight="400" font-size="46" transform="matrix(1 0 0 1 893.726 407)">0.8</text></g><g clip-path="url(#clip15)"><text font-family="Cambria Math,Cambria Math_MSFontService,sans-serif" font-weight="400" font-size="46" transform="matrix(1 0 0 1 928.491 305)">1</text></g><g clip-path="url(#clip16)"><text font-family="Cambria Math,Cambria Math_MSFontService,sans-serif" font-weight="400" font-size="46" transform="matrix(1 0 0 1 982.548 872)">1</text></g><g clip-path="url(#clip17)"><text font-family="Cambria Math,Cambria Math_MSFontService,sans-serif" font-weight="400" font-size="46" transform="matrix(1 0 0 1 1173.43 872)">10</text></g><g clip-path="url(#clip18)"><text font-family="Cambria Math,Cambria Math_MSFontService,sans-serif" font-weight="400" font-size="46" transform="matrix(1 0 0 1 1364.32 872)">100</text></g><g clip-path="url(#clip19)"><text font-family="Cambria Math,Cambria Math_MSFontService,sans-serif" font-weight="400" font-size="46" transform="matrix(1 0 0 1 1555.21 872)">1000</text></g><g clip-path="url(#clip20)"><text font-family="Cambria Math,Cambria Math_MSFontService,sans-serif" font-weight="400" font-size="46" transform="matrix(1 0 0 1 1746.09 872)">10000</text></g><g clip-path="url(#clip21)"><text font-family="Cambria Math,Cambria Math_MSFontService,sans-serif" font-weight="400" font-size="46" transform="matrix(1 0 0 1 1936.98 872)">100000</text></g><g clip-path="url(#clip22)"><text font-family="Cambria Math,Cambria Math_MSFontService,sans-serif" font-weight="400" font-size="46" transform="matrix(6.12323e-17 -1 1 6.12323e-17 870.259 616)">CDF(k)</text></g><g clip-path="url(#clip23)"><text font-family="Cambria Math,Cambria Math_MSFontService,sans-serif" font-weight="400" font-size="46" transform="matrix(1 0 0 1 1426.93 940)">index: k</text></g><g clip-path="url(#clip24)"><path d="M1060.5 361.5 1148.5 361.5" stroke="#458DCF" stroke-width="6.875" stroke-linecap="round" stroke-linejoin="round" stroke-miterlimit="10" fill="none" fill-rule="evenodd"/></g><g clip-path="url(#clip25)"><path d="M1115 361C1115 367.075 1110.07 372 1104 372 1097.92 372 1093 367.075 1093 361 1093 354.925 1097.92 350 1104 350 1110.07 350 1115 354.925 1115 361Z" stroke="#458DCF" stroke-width="3.4375" stroke-linejoin="round" stroke-miterlimit="10" fill="#458DCF"/></g><g clip-path="url(#clip26)"><text font-family="Cambria Math,Cambria Math_MSFontService,sans-serif" font-weight="400" font-size="46" transform="matrix(1 0 0 1 1157.65 377)">approx.</text></g><g clip-path="url(#clip27)"><path d="M1060.5 428.5 1148.5 428.501" stroke="#E66914" stroke-width="6.875" stroke-linecap="round" stroke-linejoin="round" stroke-miterlimit="10" fill="none" fill-rule="evenodd"/></g><g clip-path="url(#clip28)"><path d="M1115.5 439.5 1092.5 416.5M1092.5 439.5 1115.5 416.5" stroke="#E66914" stroke-width="6.875" stroke-linejoin="round" stroke-miterlimit="10" fill="none"/></g><g clip-path="url(#clip29)"><text font-family="Cambria Math,Cambria Math_MSFontService,sans-serif" font-weight="400" font-size="46" transform="matrix(1 0 0 1 1157.65 444)">exact</text></g><text font-family="Cambria Math,Cambria Math_MSFontService,sans-serif" font-weight="400" font-size="55" transform="matrix(1 0 0 1 756.351 1051)">Fig. Approximate and exact <tspan font-size="55" x="649.688" y="0">Zipf</tspan><tspan font-size="55" x="753.958" y="0">CDFs for skew parameter 1.0.</tspan></text></g></svg>