<svg width="699" height="227" xmlns="http://www.w3.org/2000/svg" xmlns:xlink="http://www.w3.org/1999/xlink" overflow="hidden"><defs><clipPath id="clip0"><rect x="0" y="0" width="699" height="227"/></clipPath><clipPath id="clip1"><rect x="20" y="2" width="338" height="179"/></clipPath><clipPath id="clip2"><rect x="20" y="2" width="338" height="179"/></clipPath><clipPath id="clip3"><rect x="20" y="2" width="338" height="179"/></clipPath><clipPath id="clip4"><rect x="20" y="2" width="338" height="179"/></clipPath><clipPath id="clip5"><rect x="20" y="2" width="338" height="179"/></clipPath><clipPath id="clip6"><rect x="61" y="17" width="259" height="129"/></clipPath><clipPath id="clip7"><rect x="20" y="2" width="338" height="179"/></clipPath><clipPath id="clip8"><rect x="61" y="17" width="259" height="129"/></clipPath><clipPath id="clip9"><rect x="20" y="2" width="338" height="179"/></clipPath><clipPath id="clip10"><rect x="20" y="2" width="338" height="179"/></clipPath><clipPath id="clip11"><rect x="20" y="2" width="338" height="179"/></clipPath><clipPath id="clip12"><rect x="20" y="2" width="338" height="179"/></clipPath><clipPath id="clip13"><rect x="20" y="2" width="338" height="179"/></clipPath><clipPath id="clip14"><rect x="20" y="2" width="338" height="179"/></clipPath><clipPath id="clip15"><rect x="20" y="2" width="338" height="179"/></clipPath><clipPath id="clip16"><rect x="20" y="2" width="338" height="179"/></clipPath><clipPath id="clip17"><rect x="20" y="2" width="338" height="179"/></clipPath><clipPath id="clip18"><rect x="20" y="2" width="338" height="179"/></clipPath><clipPath id="clip19"><rect x="20" y="2" width="338" height="179"/></clipPath><clipPath id="clip20"><rect x="20" y="2" width="338" height="179"/></clipPath><clipPath id="clip21"><rect x="20" y="2" width="338" height="179"/></clipPath><clipPath id="clip22"><rect x="20" y="2" width="338" height="179"/></clipPath><clipPath id="clip23"><rect x="20" y="2" width="338" height="179"/></clipPath><clipPath id="clip24"><rect x="20" y="2" width="338" height="179"/></clipPath><clipPath id="clip25"><rect x="20" y="2" width="338" height="179"/></clipPath><clipPath id="clip26"><rect x="20" y="2" width="338" height="179"/></clipPath><clipPath id="clip27"><rect x="20" y="2" width="338" height="179"/></clipPath><clipPath id="clip28"><rect x="371" y="2" width="338" height="179"/></clipPath><clipPath id="clip29"><rect x="371" y="2" width="338" height="179"/></clipPath><clipPath id="clip30"><rect x="371" y="2" width="338" height="179"/></clipPath><clipPath id="clip31"><rect x="371" y="2" width="338" height="179"/></clipPath><clipPath id="clip32"><rect x="371" y="2" width="338" height="179"/></clipPath><clipPath id="clip33"><rect x="412" y="17" width="259" height="129"/></clipPath><clipPath id="clip34"><rect x="371" y="2" width="338" height="179"/></clipPath><clipPath id="clip35"><rect x="412" y="17" width="259" height="129"/></clipPath><clipPath id="clip36"><rect x="371" y="2" width="338" height="179"/></clipPath><clipPath id="clip37"><rect x="371" y="2" width="338" height="179"/></clipPath><clipPath id="clip38"><rect x="371" y="2" width="338" height="179"/></clipPath><clipPath id="clip39"><rect x="371" y="2" width="338" height="179"/></clipPath><clipPath id="clip40"><rect x="371" y="2" width="338" height="179"/></clipPath><clipPath id="clip41"><rect x="371" y="2" width="338" height="179"/></clipPath><clipPath id="clip42"><rect x="371" y="2" width="338" height="179"/></clipPath><clipPath id="clip43"><rect x="371" y="2" width="338" height="179"/></clipPath><clipPath id="clip44"><rect x="371" y="2" width="338" height="179"/></clipPath><clipPath id="clip45"><rect x="371" y="2" width="338" height="179"/></clipPath><clipPath id="clip46"><rect x="371" y="2" width="338" height="179"/></clipPath><clipPath id="clip47"><rect x="371" y="2" width="338" height="179"/></clipPath><clipPath id="clip48"><rect x="371" y="2" width="338" height="179"/></clipPath><clipPath id="clip49"><rect x="371" y="2" width="338" height="179"/></clipPath><clipPath id="clip50"><rect x="371" y="2" width="338" height="179"/></clipPath><clipPath id="clip51"><rect x="371" y="2" width="338" height="179"/></clipPath><clipPath id="clip52"><rect x="371" y="2" width="338" height="179"/></clipPath></defs><g clip-path="url(#clip0)"><rect x="0" y="0" width="699" height="227.221" fill="#FFFFFF"/><g clip-path="url(#clip1)"><rect x="61.5" y="17.517" width="258" height="128.125" stroke="#000000" stroke-width="0.999762" stroke-linejoin="round" stroke-miterlimit="10" fill="none"/></g><g clip-path="url(#clip2)"><path d="M0 0 0.000104962 128" stroke="#000000" stroke-width="0.999762" stroke-linejoin="round" stroke-miterlimit="10" fill="none" fill-rule="evenodd" transform="matrix(1 0 0 -1.00097 61.5 145.642)"/></g><g clip-path="url(#clip3)"><path d="M61.5 145.642 66.5 145.642M61.5 120.614 66.5 120.614M61.5 94.5893 66.5 94.5893M61.5 68.5648 66.5 68.5648M61.5 43.5412 66.5 43.5412M61.5 17.517 66.5 17.517" stroke="#000000" stroke-width="0.999762" stroke-linejoin="round" stroke-miterlimit="10" fill="none"/></g><g clip-path="url(#clip4)"><path d="M61.5 145.642 319.5 145.642" stroke="#000000" stroke-width="0.999762" stroke-linejoin="round" stroke-miterlimit="10" fill="none" fill-rule="evenodd"/></g><g clip-path="url(#clip5)"><path d="M61.5 141.638 61.5 145.642M112.497 141.638 112.497 145.642M164.495 141.638 164.495 145.642M216.494 141.638 216.494 145.642M267.492 141.638 267.492 145.642M319.5 141.638 319.5 145.642" stroke="#000000" stroke-width="0.999762" stroke-linejoin="round" stroke-miterlimit="10" fill="none"/></g><g clip-path="url(#clip6)"><path d="M61 130.127 76.9978 126.119 85.9976 124.117 91.9974 122.115 96.9972 120.113 101.997 118.111 104.997 117.111 107.997 116.11 110.997 115.109 112.997 114.108 127.996 107.101 137.996 103.097 143.996 100.094 148.996 98.0926 152.996 96.0907 156.996 94.0888 159.995 93.0879 161.995 92.0869 164.995 91.086 179.995 83.0784 188.995 79.0746 195.994 76.0718 200.994 74.0699 204.994 72.068 207.994 70.0661 210.994 69.0652 213.994 68.0643 215.994 66.0624 231.993 59.0557 240.993 55.052 246.993 52.0491 251.993 49.0463 255.993 47.0444 259.993 46.0435 262.993 44.0416 264.992 43.0406 267.992 42.0397 282.992 35.0331 291.992 30.0283 298.991 27.0255 303.991 25.0236 307.991 23.0217 310.991 21.0198 313.991 20.0189 316.991 19.018 319 18.0175" stroke="#2F5597" stroke-width="1.99952" stroke-linecap="round" stroke-linejoin="round" stroke-miterlimit="10" fill="none"/></g><g clip-path="url(#clip7)"><path d="M64.7631 129.959C64.7631 131.617 63.42 132.962 61.7632 132.962 60.1064 132.962 58.7633 131.617 58.7633 129.959 58.7633 128.301 60.1064 126.956 61.7632 126.956 63.42 126.956 64.7631 128.301 64.7631 129.959Z" stroke="#2F5597" stroke-width="0.999762" stroke-linejoin="round" stroke-miterlimit="10" fill="#4472C4"/><path d="M79.7631 126.956C79.7631 128.615 78.42 129.959 76.7632 129.959 75.1064 129.959 73.7633 128.615 73.7633 126.956 73.7633 125.298 75.1064 123.953 76.7632 123.953 78.42 123.953 79.7631 125.298 79.7631 126.956Z" stroke="#2F5597" stroke-width="0.999762" stroke-linejoin="round" stroke-miterlimit="10" fill="#4472C4"/><path d="M89.7632 123.953C89.7632 125.612 88.4201 126.956 86.7633 126.956 85.1064 126.956 83.7633 125.612 83.7633 123.953 83.7633 122.295 85.1064 120.95 86.7633 120.95 88.4201 120.95 89.7632 122.295 89.7632 123.953Z" stroke="#2F5597" stroke-width="0.999762" stroke-linejoin="round" stroke-miterlimit="10" fill="#4472C4"/><path d="M95.7631 121.951C95.7631 123.61 94.42 124.954 92.7632 124.954 91.1064 124.954 89.7633 123.61 89.7633 121.951 89.7633 120.293 91.1064 118.948 92.7632 118.948 94.42 118.948 95.7631 120.293 95.7631 121.951Z" stroke="#2F5597" stroke-width="0.999762" stroke-linejoin="round" stroke-miterlimit="10" fill="#4472C4"/><path d="M100.763 119.949C100.763 121.608 99.4201 122.952 97.7633 122.952 96.1064 122.952 94.7633 121.608 94.7633 119.949 94.7633 118.291 96.1064 116.946 97.7633 116.946 99.4201 116.946 100.763 118.291 100.763 119.949Z" stroke="#2F5597" stroke-width="0.999762" stroke-linejoin="round" stroke-miterlimit="10" fill="#4472C4"/><path d="M104.763 118.948C104.763 120.607 103.42 121.951 101.763 121.951 100.106 121.951 98.7633 120.607 98.7633 118.948 98.7633 117.29 100.106 115.945 101.763 115.945 103.42 115.945 104.763 117.29 104.763 118.948Z" stroke="#2F5597" stroke-width="0.999762" stroke-linejoin="round" stroke-miterlimit="10" fill="#4472C4"/><path d="M107.763 116.946C107.763 118.605 106.42 119.949 104.763 119.949 103.106 119.949 101.763 118.605 101.763 116.946 101.763 115.288 103.106 113.944 104.763 113.944 106.42 113.944 107.763 115.288 107.763 116.946Z" stroke="#2F5597" stroke-width="0.999762" stroke-linejoin="round" stroke-miterlimit="10" fill="#4472C4"/><path d="M110.763 115.945C110.763 117.604 109.42 118.948 107.763 118.948 106.106 118.948 104.763 117.604 104.763 115.945 104.763 114.287 106.106 112.943 107.763 112.943 109.42 112.943 110.763 114.287 110.763 115.945Z" stroke="#2F5597" stroke-width="0.999762" stroke-linejoin="round" stroke-miterlimit="10" fill="#4472C4"/><path d="M113.763 114.944C113.763 116.603 112.42 117.947 110.763 117.947 109.106 117.947 107.763 116.603 107.763 114.944 107.763 113.286 109.106 111.942 110.763 111.942 112.42 111.942 113.763 113.286 113.763 114.944Z" stroke="#2F5597" stroke-width="0.999762" stroke-linejoin="round" stroke-miterlimit="10" fill="#4472C4"/><path d="M115.763 113.943C115.763 115.602 114.42 116.946 112.763 116.946 111.106 116.946 109.763 115.602 109.763 113.943 109.763 112.285 111.106 110.941 112.763 110.941 114.42 110.941 115.763 112.285 115.763 113.943Z" stroke="#2F5597" stroke-width="0.999762" stroke-linejoin="round" stroke-miterlimit="10" fill="#4472C4"/><path d="M131.763 107.938C131.763 109.596 130.42 110.94 128.763 110.94 127.106 110.94 125.763 109.596 125.763 107.938 125.763 106.279 127.106 104.935 128.763 104.935 130.42 104.935 131.763 106.279 131.763 107.938Z" stroke="#2F5597" stroke-width="0.999762" stroke-linejoin="round" stroke-miterlimit="10" fill="#4472C4"/><path d="M140.763 103.934C140.763 105.592 139.42 106.936 137.763 106.936 136.106 106.936 134.763 105.592 134.763 103.934 134.763 102.275 136.106 100.931 137.763 100.931 139.42 100.931 140.763 102.275 140.763 103.934Z" stroke="#2F5597" stroke-width="0.999762" stroke-linejoin="round" stroke-miterlimit="10" fill="#4472C4"/><path d="M146.763 100.931C146.763 102.589 145.42 103.934 143.763 103.934 142.106 103.934 140.763 102.589 140.763 100.931 140.763 99.2724 142.106 97.928 143.763 97.928 145.42 97.928 146.763 99.2724 146.763 100.931Z" stroke="#2F5597" stroke-width="0.999762" stroke-linejoin="round" stroke-miterlimit="10" fill="#4472C4"/><path d="M151.763 97.9279C151.763 99.5863 150.42 100.931 148.763 100.931 147.106 100.931 145.763 99.5863 145.763 97.9279 145.763 96.2694 147.106 94.925 148.763 94.925 150.42 94.925 151.763 96.2694 151.763 97.9279Z" stroke="#2F5597" stroke-width="0.999762" stroke-linejoin="round" stroke-miterlimit="10" fill="#4472C4"/><path d="M156.763 96.9269C156.763 98.5853 155.42 99.9297 153.763 99.9297 152.106 99.9297 150.763 98.5853 150.763 96.9269 150.763 95.2685 152.106 93.9241 153.763 93.9241 155.42 93.9241 156.763 95.2685 156.763 96.9269Z" stroke="#2F5597" stroke-width="0.999762" stroke-linejoin="round" stroke-miterlimit="10" fill="#4472C4"/><path d="M159.763 94.9249C159.763 96.5833 158.42 97.9278 156.763 97.9278 155.106 97.9278 153.763 96.5833 153.763 94.9249 153.763 93.2665 155.106 91.9221 156.763 91.9221 158.42 91.9221 159.763 93.2665 159.763 94.9249Z" stroke="#2F5597" stroke-width="0.999762" stroke-linejoin="round" stroke-miterlimit="10" fill="#4472C4"/><path d="M162.763 93.924C162.763 95.5824 161.42 96.9268 159.763 96.9268 158.106 96.9268 156.763 95.5824 156.763 93.924 156.763 92.2656 158.106 90.9211 159.763 90.9211 161.42 90.9211 162.763 92.2656 162.763 93.924Z" stroke="#2F5597" stroke-width="0.999762" stroke-linejoin="round" stroke-miterlimit="10" fill="#4472C4"/><path d="M165.763 91.922C165.763 93.5804 164.42 94.9248 162.763 94.9248 161.106 94.9248 159.763 93.5804 159.763 91.922 159.763 90.2636 161.106 88.9191 162.763 88.9191 164.42 88.9191 165.763 90.2636 165.763 91.922Z" stroke="#2F5597" stroke-width="0.999762" stroke-linejoin="round" stroke-miterlimit="10" fill="#4472C4"/><path d="M167.763 90.921C167.763 92.5795 166.42 93.9239 164.763 93.9239 163.106 93.9239 161.763 92.5795 161.763 90.921 161.763 89.2626 163.106 87.9182 164.763 87.9182 166.42 87.9182 167.763 89.2626 167.763 90.921Z" stroke="#2F5597" stroke-width="0.999762" stroke-linejoin="round" stroke-miterlimit="10" fill="#4472C4"/><path d="M183.763 83.9142C183.763 85.5726 182.42 86.917 180.763 86.917 179.106 86.917 177.763 85.5726 177.763 83.9142 177.763 82.2558 179.106 80.9114 180.763 80.9114 182.42 80.9114 183.763 82.2558 183.763 83.9142Z" stroke="#2F5597" stroke-width="0.999762" stroke-linejoin="round" stroke-miterlimit="10" fill="#4472C4"/><path d="M192.763 79.9103C192.763 81.5687 191.42 82.9132 189.763 82.9132 188.106 82.9132 186.763 81.5687 186.763 79.9103 186.763 78.2519 188.106 76.9075 189.763 76.9075 191.42 76.9075 192.763 78.2519 192.763 79.9103Z" stroke="#2F5597" stroke-width="0.999762" stroke-linejoin="round" stroke-miterlimit="10" fill="#4472C4"/><path d="M198.763 76.9074C198.763 78.5658 197.42 79.9102 195.763 79.9102 194.106 79.9102 192.763 78.5658 192.763 76.9074 192.763 75.249 194.106 73.9045 195.763 73.9045 197.42 73.9045 198.763 75.249 198.763 76.9074Z" stroke="#2F5597" stroke-width="0.999762" stroke-linejoin="round" stroke-miterlimit="10" fill="#4472C4"/><path d="M203.763 73.9044C203.763 75.5629 202.42 76.9073 200.763 76.9073 199.106 76.9073 197.763 75.5629 197.763 73.9044 197.763 72.246 199.106 70.9016 200.763 70.9016 202.42 70.9016 203.763 72.246 203.763 73.9044Z" stroke="#2F5597" stroke-width="0.999762" stroke-linejoin="round" stroke-miterlimit="10" fill="#4472C4"/><path d="M207.763 71.9025C207.763 73.561 206.42 74.9054 204.763 74.9054 203.106 74.9054 201.763 73.561 201.763 71.9025 201.763 70.2441 203.106 68.8997 204.763 68.8997 206.42 68.8997 207.763 70.2441 207.763 71.9025Z" stroke="#2F5597" stroke-width="0.999762" stroke-linejoin="round" stroke-miterlimit="10" fill="#4472C4"/><path d="M211.763 70.9015C211.763 72.5599 210.42 73.9043 208.763 73.9043 207.106 73.9043 205.763 72.5599 205.763 70.9015 205.763 69.2431 207.106 67.8987 208.763 67.8987 210.42 67.8987 211.763 69.2431 211.763 70.9015Z" stroke="#2F5597" stroke-width="0.999762" stroke-linejoin="round" stroke-miterlimit="10" fill="#4472C4"/><path d="M214.763 68.8996C214.763 70.558 213.42 71.9025 211.763 71.9025 210.106 71.9025 208.763 70.558 208.763 68.8996 208.763 67.2412 210.106 65.8968 211.763 65.8968 213.42 65.8968 214.763 67.2412 214.763 68.8996Z" stroke="#2F5597" stroke-width="0.999762" stroke-linejoin="round" stroke-miterlimit="10" fill="#4472C4"/><path d="M216.763 67.8987C216.763 69.5571 215.42 70.9015 213.763 70.9015 212.106 70.9015 210.763 69.5571 210.763 67.8987 210.763 66.2402 212.106 64.8958 213.763 64.8958 215.42 64.8958 216.763 66.2402 216.763 67.8987Z" stroke="#2F5597" stroke-width="0.999762" stroke-linejoin="round" stroke-miterlimit="10" fill="#4472C4"/><path d="M219.763 66.8976C219.763 68.556 218.42 69.9005 216.763 69.9005 215.106 69.9005 213.763 68.556 213.763 66.8976 213.763 65.2392 215.106 63.8948 216.763 63.8948 218.42 63.8948 219.763 65.2392 219.763 66.8976Z" stroke="#2F5597" stroke-width="0.999762" stroke-linejoin="round" stroke-miterlimit="10" fill="#4472C4"/><path d="M234.763 59.8908C234.763 61.5492 233.42 62.8936 231.763 62.8936 230.106 62.8936 228.763 61.5492 228.763 59.8908 228.763 58.2324 230.106 56.888 231.763 56.888 233.42 56.888 234.763 58.2324 234.763 59.8908Z" stroke="#2F5597" stroke-width="0.999762" stroke-linejoin="round" stroke-miterlimit="10" fill="#4472C4"/><path d="M243.763 54.886C243.763 56.5444 242.42 57.8888 240.763 57.8888 239.106 57.8888 237.763 56.5444 237.763 54.886 237.763 53.2275 239.106 51.8831 240.763 51.8831 242.42 51.8831 243.763 53.2275 243.763 54.886Z" stroke="#2F5597" stroke-width="0.999762" stroke-linejoin="round" stroke-miterlimit="10" fill="#4472C4"/><path d="M250.763 51.883C250.763 53.5415 249.42 54.8859 247.763 54.8859 246.106 54.8859 244.763 53.5415 244.763 51.883 244.763 50.2246 246.106 48.8802 247.763 48.8802 249.42 48.8802 250.763 50.2246 250.763 51.883Z" stroke="#2F5597" stroke-width="0.999762" stroke-linejoin="round" stroke-miterlimit="10" fill="#4472C4"/><path d="M255.763 49.8811C255.763 51.5396 254.42 52.884 252.763 52.884 251.106 52.884 249.763 51.5396 249.763 49.8811 249.763 48.2227 251.106 46.8783 252.763 46.8783 254.42 46.8783 255.763 48.2227 255.763 49.8811Z" stroke="#2F5597" stroke-width="0.999762" stroke-linejoin="round" stroke-miterlimit="10" fill="#4472C4"/><path d="M259.763 47.8791C259.763 49.5376 258.42 50.882 256.763 50.882 255.106 50.882 253.763 49.5376 253.763 47.8791 253.763 46.2207 255.106 44.8763 256.763 44.8763 258.42 44.8763 259.763 46.2207 259.763 47.8791Z" stroke="#2F5597" stroke-width="0.999762" stroke-linejoin="round" stroke-miterlimit="10" fill="#4472C4"/><path d="M262.763 45.8773C262.763 47.5357 261.42 48.8801 259.763 48.8801 258.106 48.8801 256.763 47.5357 256.763 45.8773 256.763 44.2188 258.106 42.8744 259.763 42.8744 261.42 42.8744 262.763 44.2188 262.763 45.8773Z" stroke="#2F5597" stroke-width="0.999762" stroke-linejoin="round" stroke-miterlimit="10" fill="#4472C4"/><path d="M265.763 44.8762C265.763 46.5346 264.42 47.879 262.763 47.879 261.106 47.879 259.763 46.5346 259.763 44.8762 259.763 43.2178 261.106 41.8734 262.763 41.8734 264.42 41.8734 265.763 43.2178 265.763 44.8762Z" stroke="#2F5597" stroke-width="0.999762" stroke-linejoin="round" stroke-miterlimit="10" fill="#4472C4"/><path d="M268.763 43.8753C268.763 45.5337 267.42 46.8781 265.763 46.8781 264.106 46.8781 262.763 45.5337 262.763 43.8753 262.763 42.2168 264.106 40.8724 265.763 40.8724 267.42 40.8724 268.763 42.2168 268.763 43.8753Z" stroke="#2F5597" stroke-width="0.999762" stroke-linejoin="round" stroke-miterlimit="10" fill="#4472C4"/><path d="M270.763 42.8743C270.763 44.5327 269.42 45.8771 267.763 45.8771 266.106 45.8771 264.763 44.5327 264.763 42.8743 264.763 41.2159 266.106 39.8715 267.763 39.8715 269.42 39.8715 270.763 41.2159 270.763 42.8743Z" stroke="#2F5597" stroke-width="0.999762" stroke-linejoin="round" stroke-miterlimit="10" fill="#4472C4"/><path d="M286.763 34.8665C286.763 36.525 285.42 37.8694 283.763 37.8694 282.106 37.8694 280.763 36.525 280.763 34.8665 280.763 33.2081 282.106 31.8637 283.763 31.8637 285.42 31.8637 286.763 33.2081 286.763 34.8665Z" stroke="#2F5597" stroke-width="0.999762" stroke-linejoin="round" stroke-miterlimit="10" fill="#4472C4"/><path d="M295.763 30.8627C295.763 32.5211 294.42 33.8655 292.763 33.8655 291.106 33.8655 289.763 32.5211 289.763 30.8627 289.763 29.2042 291.106 27.8598 292.763 27.8598 294.42 27.8598 295.763 29.2042 295.763 30.8627Z" stroke="#2F5597" stroke-width="0.999762" stroke-linejoin="round" stroke-miterlimit="10" fill="#4472C4"/><path d="M301.763 27.8597C301.763 29.5181 300.42 30.8626 298.763 30.8626 297.106 30.8626 295.763 29.5181 295.763 27.8597 295.763 26.2013 297.106 24.8569 298.763 24.8569 300.42 24.8569 301.763 26.2013 301.763 27.8597Z" stroke="#2F5597" stroke-width="0.999762" stroke-linejoin="round" stroke-miterlimit="10" fill="#4472C4"/><path d="M306.763 24.8568C306.763 26.5152 305.42 27.8596 303.763 27.8596 302.106 27.8596 300.763 26.5152 300.763 24.8568 300.763 23.1984 302.106 21.8539 303.763 21.8539 305.42 21.8539 306.763 23.1984 306.763 24.8568Z" stroke="#2F5597" stroke-width="0.999762" stroke-linejoin="round" stroke-miterlimit="10" fill="#4472C4"/><path d="M310.763 23.8558C310.763 25.5143 309.42 26.8587 307.763 26.8587 306.106 26.8587 304.763 25.5143 304.763 23.8558 304.763 22.1974 306.106 20.853 307.763 20.853 309.42 20.853 310.763 22.1974 310.763 23.8558Z" stroke="#2F5597" stroke-width="0.999762" stroke-linejoin="round" stroke-miterlimit="10" fill="#4472C4"/><path d="M314.763 21.8538C314.763 23.5123 313.42 24.8567 311.763 24.8567 310.106 24.8567 308.763 23.5123 308.763 21.8538 308.763 20.1954 310.106 18.851 311.763 18.851 313.42 18.851 314.763 20.1954 314.763 21.8538Z" stroke="#2F5597" stroke-width="0.999762" stroke-linejoin="round" stroke-miterlimit="10" fill="#4472C4"/><path d="M317.763 19.8519C317.763 21.5104 316.42 22.8548 314.763 22.8548 313.106 22.8548 311.763 21.5104 311.763 19.8519 311.763 18.1935 313.106 16.8491 314.763 16.8491 316.42 16.8491 317.763 18.1935 317.763 19.8519Z" stroke="#2F5597" stroke-width="0.999762" stroke-linejoin="round" stroke-miterlimit="10" fill="#4472C4"/><path d="M319.763 18.8509C319.763 20.5093 318.42 21.8537 316.763 21.8537 315.106 21.8537 313.763 20.5093 313.763 18.8509 313.763 17.1925 315.106 15.8481 316.763 15.8481 318.42 15.8481 319.763 17.1925 319.763 18.8509Z" stroke="#2F5597" stroke-width="0.999762" stroke-linejoin="round" stroke-miterlimit="10" fill="#4472C4"/><path d="M322.763 17.85C322.763 19.5084 321.42 20.8528 319.763 20.8528 318.106 20.8528 316.763 19.5084 316.763 17.85 316.763 16.1915 318.106 14.8471 319.763 14.8471 321.42 14.8471 322.763 16.1915 322.763 17.85Z" stroke="#2F5597" stroke-width="0.999762" stroke-linejoin="round" stroke-miterlimit="10" fill="#4472C4"/></g><g clip-path="url(#clip8)"><path d="M61 130.127 76.9978 126.119 85.9976 124.117 91.9974 122.115 96.9972 120.113 101.997 118.111 104.997 117.111 107.997 116.11 110.997 115.109 112.997 114.108 127.996 107.101 137.996 103.097 143.996 100.094 148.996 98.0926 152.996 96.0907 156.996 95.0898 159.995 93.0879 161.995 92.0869 164.995 91.086 179.995 84.0794 188.995 80.0756 195.994 76.0718 200.994 74.0699 204.994 72.068 207.994 71.0671 210.994 69.0652 213.994 68.0643 215.994 67.0633 231.993 59.0557 240.993 55.052 246.993 52.0491 251.993 50.0472 255.993 48.0454 259.993 46.0435 262.993 45.0425 264.992 43.0406 267.992 42.0397 282.992 35.0331 291.992 30.0283 298.991 27.0255 303.991 25.0236 307.991 23.0217 310.991 21.0198 313.991 20.0189 316.991 19.018 319 18.0175" stroke="#E66914" stroke-width="1.99952" stroke-linecap="round" stroke-linejoin="round" stroke-miterlimit="10" fill="none"/></g><g clip-path="url(#clip9)"><path d="M64.2631 133.462 58.2633 127.457M58.2633 133.462 64.2631 127.457" stroke="#E66914" stroke-width="1.99952" stroke-linejoin="round" stroke-miterlimit="10" fill="none"/><path d="M80.2631 129.458 74.2632 123.453M74.2632 129.458 80.2631 123.453" stroke="#E66914" stroke-width="1.99952" stroke-linejoin="round" stroke-miterlimit="10" fill="none"/><path d="M89.2631 127.456 83.2633 121.451M83.2633 127.456 89.2631 121.451" stroke="#E66914" stroke-width="1.99952" stroke-linejoin="round" stroke-miterlimit="10" fill="none"/><path d="M95.2631 125.455 89.2632 119.449M89.2632 125.455 95.2631 119.449" stroke="#E66914" stroke-width="1.99952" stroke-linejoin="round" stroke-miterlimit="10" fill="none"/><path d="M100.263 123.453 94.2633 117.447M94.2633 123.453 100.263 117.447" stroke="#E66914" stroke-width="1.99952" stroke-linejoin="round" stroke-miterlimit="10" fill="none"/><path d="M105.263 121.451 99.2633 115.445M99.2633 121.451 105.263 115.445" stroke="#E66914" stroke-width="1.99952" stroke-linejoin="round" stroke-miterlimit="10" fill="none"/><path d="M108.263 120.45 102.263 114.444M102.263 120.45 108.263 114.444" stroke="#E66914" stroke-width="1.99952" stroke-linejoin="round" stroke-miterlimit="10" fill="none"/><path d="M111.263 119.449 105.263 113.443M105.263 119.449 111.263 113.443" stroke="#E66914" stroke-width="1.99952" stroke-linejoin="round" stroke-miterlimit="10" fill="none"/><path d="M114.263 118.448 108.263 112.442M108.263 118.448 114.263 112.442" stroke="#E66914" stroke-width="1.99952" stroke-linejoin="round" stroke-miterlimit="10" fill="none"/><path d="M116.263 117.447 110.263 111.441M110.263 117.447 116.263 111.441" stroke="#E66914" stroke-width="1.99952" stroke-linejoin="round" stroke-miterlimit="10" fill="none"/><path d="M131.263 110.44 125.263 104.434M125.263 110.44 131.263 104.434" stroke="#E66914" stroke-width="1.99952" stroke-linejoin="round" stroke-miterlimit="10" fill="none"/><path d="M141.263 106.436 135.263 100.43M135.263 106.436 141.263 100.43" stroke="#E66914" stroke-width="1.99952" stroke-linejoin="round" stroke-miterlimit="10" fill="none"/><path d="M147.263 103.433 141.263 97.4274M141.263 103.433 147.263 97.4274" stroke="#E66914" stroke-width="1.99952" stroke-linejoin="round" stroke-miterlimit="10" fill="none"/><path d="M152.263 101.431 146.263 95.4254M146.263 101.431 152.263 95.4254" stroke="#E66914" stroke-width="1.99952" stroke-linejoin="round" stroke-miterlimit="10" fill="none"/><path d="M156.263 99.4292 150.263 93.4236M150.263 99.4292 156.263 93.4236" stroke="#E66914" stroke-width="1.99952" stroke-linejoin="round" stroke-miterlimit="10" fill="none"/><path d="M160.263 98.4282 154.263 92.4225M154.263 98.4282 160.263 92.4225" stroke="#E66914" stroke-width="1.99952" stroke-linejoin="round" stroke-miterlimit="10" fill="none"/><path d="M163.263 96.4263 157.263 90.4206M157.263 96.4263 163.263 90.4206" stroke="#E66914" stroke-width="1.99952" stroke-linejoin="round" stroke-miterlimit="10" fill="none"/><path d="M165.263 95.4252 159.263 89.4196M159.263 95.4252 165.263 89.4196" stroke="#E66914" stroke-width="1.99952" stroke-linejoin="round" stroke-miterlimit="10" fill="none"/><path d="M168.263 94.4243 162.263 88.4186M162.263 94.4243 168.263 88.4186" stroke="#E66914" stroke-width="1.99952" stroke-linejoin="round" stroke-miterlimit="10" fill="none"/><path d="M183.263 87.4175 177.263 81.4118M177.263 87.4175 183.263 81.4118" stroke="#E66914" stroke-width="1.99952" stroke-linejoin="round" stroke-miterlimit="10" fill="none"/><path d="M192.263 83.4136 186.263 77.4079M186.263 83.4136 192.263 77.4079" stroke="#E66914" stroke-width="1.99952" stroke-linejoin="round" stroke-miterlimit="10" fill="none"/><path d="M199.263 79.4097 193.263 73.404M193.263 79.4097 199.263 73.404" stroke="#E66914" stroke-width="1.99952" stroke-linejoin="round" stroke-miterlimit="10" fill="none"/><path d="M204.263 77.4078 198.263 71.4021M198.263 77.4078 204.263 71.4021" stroke="#E66914" stroke-width="1.99952" stroke-linejoin="round" stroke-miterlimit="10" fill="none"/><path d="M208.263 75.4058 202.263 69.4001M202.263 75.4058 208.263 69.4001" stroke="#E66914" stroke-width="1.99952" stroke-linejoin="round" stroke-miterlimit="10" fill="none"/><path d="M211.263 74.4049 205.263 68.3992M205.263 74.4049 211.263 68.3992" stroke="#E66914" stroke-width="1.99952" stroke-linejoin="round" stroke-miterlimit="10" fill="none"/><path d="M214.263 72.4029 208.263 66.3972M208.263 72.4029 214.263 66.3972" stroke="#E66914" stroke-width="1.99952" stroke-linejoin="round" stroke-miterlimit="10" fill="none"/><path d="M217.263 71.4019 211.263 65.3963M211.263 71.4019 217.263 65.3963" stroke="#E66914" stroke-width="1.99952" stroke-linejoin="round" stroke-miterlimit="10" fill="none"/><path d="M219.263 70.401 213.263 64.3953M213.263 70.401 219.263 64.3953" stroke="#E66914" stroke-width="1.99952" stroke-linejoin="round" stroke-miterlimit="10" fill="none"/><path d="M235.263 62.3931 229.263 56.3874M229.263 62.3931 235.263 56.3874" stroke="#E66914" stroke-width="1.99952" stroke-linejoin="round" stroke-miterlimit="10" fill="none"/><path d="M244.263 58.3892 238.263 52.3836M238.263 58.3892 244.263 52.3836" stroke="#E66914" stroke-width="1.99952" stroke-linejoin="round" stroke-miterlimit="10" fill="none"/><path d="M250.263 55.3864 244.263 49.3807M244.263 55.3864 250.263 49.3807" stroke="#E66914" stroke-width="1.99952" stroke-linejoin="round" stroke-miterlimit="10" fill="none"/><path d="M255.263 53.3844 249.263 47.3787M249.263 53.3844 255.263 47.3787" stroke="#E66914" stroke-width="1.99952" stroke-linejoin="round" stroke-miterlimit="10" fill="none"/><path d="M259.263 51.3825 253.263 45.3768M253.263 51.3825 259.263 45.3768" stroke="#E66914" stroke-width="1.99952" stroke-linejoin="round" stroke-miterlimit="10" fill="none"/><path d="M263.263 49.3805 257.263 43.3748M257.263 49.3805 263.263 43.3748" stroke="#E66914" stroke-width="1.99952" stroke-linejoin="round" stroke-miterlimit="10" fill="none"/><path d="M266.263 48.3796 260.263 42.3739M260.263 48.3796 266.263 42.3739" stroke="#E66914" stroke-width="1.99952" stroke-linejoin="round" stroke-miterlimit="10" fill="none"/><path d="M268.263 46.3776 262.263 40.3719M262.263 46.3776 268.263 40.3719" stroke="#E66914" stroke-width="1.99952" stroke-linejoin="round" stroke-miterlimit="10" fill="none"/><path d="M271.263 45.3766 265.263 39.371M265.263 45.3766 271.263 39.371" stroke="#E66914" stroke-width="1.99952" stroke-linejoin="round" stroke-miterlimit="10" fill="none"/><path d="M286.263 38.3698 280.263 32.3641M280.263 38.3698 286.263 32.3641" stroke="#E66914" stroke-width="1.99952" stroke-linejoin="round" stroke-miterlimit="10" fill="none"/><path d="M295.263 33.365 289.263 27.3593M289.263 33.365 295.263 27.3593" stroke="#E66914" stroke-width="1.99952" stroke-linejoin="round" stroke-miterlimit="10" fill="none"/><path d="M302.263 30.362 296.263 24.3564M296.263 30.362 302.263 24.3564" stroke="#E66914" stroke-width="1.99952" stroke-linejoin="round" stroke-miterlimit="10" fill="none"/><path d="M307.263 28.36 301.263 22.3544M301.263 28.36 307.263 22.3544" stroke="#E66914" stroke-width="1.99952" stroke-linejoin="round" stroke-miterlimit="10" fill="none"/><path d="M311.263 26.3581 305.263 20.3525M305.263 26.3581 311.263 20.3525" stroke="#E66914" stroke-width="1.99952" stroke-linejoin="round" stroke-miterlimit="10" fill="none"/><path d="M314.263 24.3561 308.263 18.3505M308.263 24.3561 314.263 18.3505" stroke="#E66914" stroke-width="1.99952" stroke-linejoin="round" stroke-miterlimit="10" fill="none"/><path d="M317.263 23.3552 311.263 17.3495M311.263 23.3552 317.263 17.3495" stroke="#E66914" stroke-width="1.99952" stroke-linejoin="round" stroke-miterlimit="10" fill="none"/><path d="M320.263 22.3543 314.263 16.3486M314.263 22.3543 320.263 16.3486" stroke="#E66914" stroke-width="1.99952" stroke-linejoin="round" stroke-miterlimit="10" fill="none"/><path d="M322.263 21.3532 316.263 15.3475M316.263 21.3532 322.263 15.3475" stroke="#E66914" stroke-width="1.99952" stroke-linejoin="round" stroke-miterlimit="10" fill="none"/></g><g clip-path="url(#clip10)"><text font-family="Cambria Math,Cambria Math_MSFontService,sans-serif" font-weight="400" font-size="15" transform="matrix(1 0 0 1.00097 40.0519 151)">0</text></g><g clip-path="url(#clip11)"><text font-family="Cambria Math,Cambria Math_MSFontService,sans-serif" font-weight="400" font-size="15" transform="matrix(1 0 0 1.00097 28.9278 125)">0.2</text></g><g clip-path="url(#clip12)"><text font-family="Cambria Math,Cambria Math_MSFontService,sans-serif" font-weight="400" font-size="15" transform="matrix(1 0 0 1.00097 28.9278 99)">0.4</text></g><g clip-path="url(#clip13)"><text font-family="Cambria Math,Cambria Math_MSFontService,sans-serif" font-weight="400" font-size="15" transform="matrix(1 0 0 1.00097 28.9278 74)">0.6</text></g><g clip-path="url(#clip14)"><text font-family="Cambria Math,Cambria Math_MSFontService,sans-serif" font-weight="400" font-size="15" transform="matrix(1 0 0 1.00097 28.9278 48)">0.8</text></g><g clip-path="url(#clip15)"><text font-family="Cambria Math,Cambria Math_MSFontService,sans-serif" font-weight="400" font-size="15" transform="matrix(1 0 0 1.00097 40.0519 22)">1</text></g><g clip-path="url(#clip16)"><text font-family="Cambria Math,Cambria Math_MSFontService,sans-serif" font-weight="400" font-size="15" transform="matrix(1 0 0 1.00097 57.3488 169)">1</text></g><g clip-path="url(#clip17)"><text font-family="Cambria Math,Cambria Math_MSFontService,sans-serif" font-weight="400" font-size="15" transform="matrix(1 0 0 1.00097 104.843 169)">10</text></g><g clip-path="url(#clip18)"><text font-family="Cambria Math,Cambria Math_MSFontService,sans-serif" font-weight="400" font-size="15" transform="matrix(1 0 0 1.00097 152.336 169)">100</text></g><g clip-path="url(#clip19)"><text font-family="Cambria Math,Cambria Math_MSFontService,sans-serif" font-weight="400" font-size="15" transform="matrix(1 0 0 1.00097 199.83 169)">1000</text></g><g clip-path="url(#clip20)"><text font-family="Cambria Math,Cambria Math_MSFontService,sans-serif" font-weight="400" font-size="15" transform="matrix(1 0 0 1.00097 247.324 169)">10000</text></g><g clip-path="url(#clip21)"><text font-family="Cambria Math,Cambria Math_MSFontService,sans-serif" font-weight="400" font-size="15" transform="matrix(1 0 0 1.00097 294.818 169)">100000</text></g><g clip-path="url(#clip22)"><path d="M78 39.038 104 39.0381" stroke="#2F5597" stroke-width="1.99952" stroke-linecap="round" stroke-linejoin="round" stroke-miterlimit="10" fill="none" fill-rule="evenodd"/></g><g clip-path="url(#clip23)"><path d="M94.0714 38.5374C94.0714 39.9589 92.9201 41.1113 91.5 41.1113 90.0798 41.1113 88.9286 39.9589 88.9286 38.5374 88.9286 37.1159 90.0798 35.9635 91.5 35.9635 92.9201 35.9635 94.0714 37.1159 94.0714 38.5374Z" stroke="#2F5597" stroke-width="0.999762" stroke-linejoin="round" stroke-miterlimit="10" fill="#4472C4"/></g><g clip-path="url(#clip24)"><text font-family="Cambria Math,Cambria Math_MSFontService,sans-serif" font-weight="400" font-size="15" transform="matrix(1 0 0 1.00097 106.667 44)">Exact</text></g><g clip-path="url(#clip25)"><path d="M78 61.0594 104 61.0595" stroke="#E66914" stroke-width="1.99952" stroke-linecap="round" stroke-linejoin="round" stroke-miterlimit="10" fill="none" fill-rule="evenodd"/></g><g clip-path="url(#clip26)"><path d="M93.9999 64.0623 88 58.0565M88 64.0623 93.9999 58.0565" stroke="#E66914" stroke-width="1.99952" stroke-linejoin="round" stroke-miterlimit="10" fill="none"/></g><g clip-path="url(#clip27)"><text font-family="Cambria Math,Cambria Math_MSFontService,sans-serif" font-weight="400" font-size="15" transform="matrix(1 0 0 1.00097 106.667 66)">Approx.</text></g><text font-family="Cambria Math,Cambria Math_MSFontService,sans-serif" font-weight="400" font-size="15" transform="matrix(1 0 0 1.00097 164.48 195)">Index:</text><text font-family="Cambria Math,Cambria Math_MSFontService,sans-serif" font-weight="400" font-size="15" transform="matrix(1 0 0 1.00097 207.803 195)">ğ‘˜</text><text font-family="Cambria Math,Cambria Math_MSFontService,sans-serif" font-weight="400" font-size="15" transform="matrix(-1.83697e-16 -1.00195 0.999028 -1.83876e-16 15.4611 105)">CDF(</text><text font-family="Cambria Math,Cambria Math_MSFontService,sans-serif" font-weight="400" font-size="15" transform="matrix(-1.83697e-16 -1.00195 0.999028 -1.83876e-16 15.4611 73)">ğ‘˜</text><text font-family="Cambria Math,Cambria Math_MSFontService,sans-serif" font-weight="400" font-size="15" transform="matrix(-1.83697e-16 -1.00195 0.999028 -1.83876e-16 15.4611 64)">)</text><text font-family="Cambria Math,Cambria Math_MSFontService,sans-serif" font-weight="400" font-size="16" transform="matrix(1 0 0 1.00097 106.329 219)">(a) Skew factor = 1.0</text><g clip-path="url(#clip28)"><rect x="412.5" y="17.517" width="258" height="128.125" stroke="#000000" stroke-width="0.999762" stroke-linejoin="round" stroke-miterlimit="10" fill="none"/></g><g clip-path="url(#clip29)"><path d="M0 0 0.000104962 128" stroke="#000000" stroke-width="0.999762" stroke-linejoin="round" stroke-miterlimit="10" fill="none" fill-rule="evenodd" transform="matrix(1 0 0 -1.00097 412.5 145.642)"/></g><g clip-path="url(#clip30)"><path d="M412.5 145.642 415.488 145.642M412.5 124.618 415.488 124.618M412.5 103.598 415.488 103.598M412.5 81.5771 415.488 81.5771M412.5 60.5572 415.488 60.5572M412.5 38.5364 415.488 38.5364M412.5 17.517 415.488 17.517M412.5 145.642 416.5 145.642M412.5 103.598 416.5 103.598M412.5 60.5572 416.5 60.5572M412.5 17.517 416.5 17.517" stroke="#000000" stroke-width="0.999762" stroke-linejoin="round" stroke-miterlimit="10" fill="none"/></g><g clip-path="url(#clip31)"><path d="M412.5 145.642 670.5 145.642" stroke="#000000" stroke-width="0.999762" stroke-linejoin="round" stroke-miterlimit="10" fill="none" fill-rule="evenodd"/></g><g clip-path="url(#clip32)"><path d="M412.5 141.638 412.5 145.642M463.487 141.638 463.487 145.642M515.485 141.638 515.485 145.642M566.484 141.638 566.484 145.642M618.482 141.638 618.482 145.642M670.5 141.638 670.5 145.642" stroke="#000000" stroke-width="0.999762" stroke-linejoin="round" stroke-miterlimit="10" fill="none"/></g><g clip-path="url(#clip33)"><path d="M412 120.117 427.988 91.086 436.988 75.0709 442.987 65.0614 447.987 57.0539 451.987 52.0491 455.987 48.0454 458.987 45.0425 460.987 42.0397 463.987 40.0378 478.986 30.0283 487.986 26.0246 494.986 24.0227 499.986 23.0217 503.986 22.0208 506.986 21.0198 509.985 21.0198 512.985 20.0189 514.985 20.0189 530.985 19.018 539.985 18.017 545.984 18.017 550.984 18.017 554.984 18.017 558.984 18.017 561.984 18.017 564.984 18.017 566.984 18.017 581.983 18.017 591.983 18.017 597.983 18.017 602.983 18.017 606.983 18.017 609.983 18.017 612.983 18.017 615.982 18.017 617.982 18.017 633.982 18.017 642.982 18.017 649.982 18.017 654.981 18.017 658.981 18.017 661.981 18.017 664.981 18.017 667.981 18.017 670 18.0175" stroke="#2F5597" stroke-width="1.99952" stroke-linecap="round" stroke-linejoin="round" stroke-miterlimit="10" fill="none"/></g><g clip-path="url(#clip34)"><path d="M415.596 120.95C415.596 122.609 414.253 123.953 412.596 123.953 410.939 123.953 409.596 122.609 409.596 120.95 409.596 119.292 410.939 117.947 412.596 117.947 414.253 117.947 415.596 119.292 415.596 120.95Z" stroke="#2F5597" stroke-width="0.999762" stroke-linejoin="round" stroke-miterlimit="10" fill="#4472C4"/><path d="M430.596 91.922C430.596 93.5804 429.253 94.9248 427.596 94.9248 425.939 94.9248 424.596 93.5804 424.596 91.922 424.596 90.2636 425.939 88.9191 427.596 88.9191 429.253 88.9191 430.596 90.2636 430.596 91.922Z" stroke="#2F5597" stroke-width="0.999762" stroke-linejoin="round" stroke-miterlimit="10" fill="#4472C4"/><path d="M439.596 75.9064C439.596 77.5649 438.253 78.9093 436.596 78.9093 434.939 78.9093 433.596 77.5649 433.596 75.9064 433.596 74.248 434.939 72.9036 436.596 72.9036 438.253 72.9036 439.596 74.248 439.596 75.9064Z" stroke="#2F5597" stroke-width="0.999762" stroke-linejoin="round" stroke-miterlimit="10" fill="#4472C4"/><path d="M446.596 64.8957C446.596 66.5542 445.253 67.8986 443.596 67.8986 441.939 67.8986 440.596 66.5542 440.596 64.8957 440.596 63.2373 441.939 61.8929 443.596 61.8929 445.253 61.8929 446.596 63.2373 446.596 64.8957Z" stroke="#2F5597" stroke-width="0.999762" stroke-linejoin="round" stroke-miterlimit="10" fill="#4472C4"/><path d="M451.596 57.8889C451.596 59.5473 450.253 60.8917 448.596 60.8917 446.939 60.8917 445.596 59.5473 445.596 57.8889 445.596 56.2305 446.939 54.8861 448.596 54.8861 450.253 54.8861 451.596 56.2305 451.596 57.8889Z" stroke="#2F5597" stroke-width="0.999762" stroke-linejoin="round" stroke-miterlimit="10" fill="#4472C4"/><path d="M455.596 52.8841C455.596 54.5425 454.253 55.8869 452.596 55.8869 450.939 55.8869 449.596 54.5425 449.596 52.8841 449.596 51.2257 450.939 49.8812 452.596 49.8812 454.253 49.8812 455.596 51.2257 455.596 52.8841Z" stroke="#2F5597" stroke-width="0.999762" stroke-linejoin="round" stroke-miterlimit="10" fill="#4472C4"/><path d="M458.596 48.8802C458.596 50.5386 457.253 51.883 455.596 51.883 453.939 51.883 452.596 50.5386 452.596 48.8802 452.596 47.2218 453.939 45.8774 455.596 45.8774 457.253 45.8774 458.596 47.2218 458.596 48.8802Z" stroke="#2F5597" stroke-width="0.999762" stroke-linejoin="round" stroke-miterlimit="10" fill="#4472C4"/><path d="M461.596 44.8762C461.596 46.5346 460.253 47.879 458.596 47.879 456.939 47.879 455.596 46.5346 455.596 44.8762 455.596 43.2178 456.939 41.8734 458.596 41.8734 460.253 41.8734 461.596 43.2178 461.596 44.8762Z" stroke="#2F5597" stroke-width="0.999762" stroke-linejoin="round" stroke-miterlimit="10" fill="#4472C4"/><path d="M464.596 42.8743C464.596 44.5327 463.253 45.8771 461.596 45.8771 459.939 45.8771 458.596 44.5327 458.596 42.8743 458.596 41.2159 459.939 39.8715 461.596 39.8715 463.253 39.8715 464.596 41.2159 464.596 42.8743Z" stroke="#2F5597" stroke-width="0.999762" stroke-linejoin="round" stroke-miterlimit="10" fill="#4472C4"/><path d="M466.596 40.8723C466.596 42.5307 465.253 43.8752 463.596 43.8752 461.939 43.8752 460.596 42.5307 460.596 40.8723 460.596 39.2139 461.939 37.8695 463.596 37.8695 465.253 37.8695 466.596 39.2139 466.596 40.8723Z" stroke="#2F5597" stroke-width="0.999762" stroke-linejoin="round" stroke-miterlimit="10" fill="#4472C4"/><path d="M482.596 29.8616C482.596 31.52 481.253 32.8644 479.596 32.8644 477.939 32.8644 476.596 31.52 476.596 29.8616 476.596 28.2032 477.939 26.8588 479.596 26.8588 481.253 26.8588 482.596 28.2032 482.596 29.8616Z" stroke="#2F5597" stroke-width="0.999762" stroke-linejoin="round" stroke-miterlimit="10" fill="#4472C4"/><path d="M491.596 25.8577C491.596 27.5161 490.253 28.8606 488.596 28.8606 486.939 28.8606 485.596 27.5161 485.596 25.8577 485.596 24.1993 486.939 22.8549 488.596 22.8549 490.253 22.8549 491.596 24.1993 491.596 25.8577Z" stroke="#2F5597" stroke-width="0.999762" stroke-linejoin="round" stroke-miterlimit="10" fill="#4472C4"/><path d="M497.596 23.8558C497.596 25.5143 496.253 26.8587 494.596 26.8587 492.939 26.8587 491.596 25.5143 491.596 23.8558 491.596 22.1974 492.939 20.853 494.596 20.853 496.253 20.853 497.596 22.1974 497.596 23.8558Z" stroke="#2F5597" stroke-width="0.999762" stroke-linejoin="round" stroke-miterlimit="10" fill="#4472C4"/><path d="M502.596 22.8548C502.596 24.5132 501.253 25.8576 499.596 25.8576 497.939 25.8576 496.596 24.5132 496.596 22.8548 496.596 21.1964 497.939 19.8519 499.596 19.8519 501.253 19.8519 502.596 21.1964 502.596 22.8548Z" stroke="#2F5597" stroke-width="0.999762" stroke-linejoin="round" stroke-miterlimit="10" fill="#4472C4"/><path d="M506.596 21.8538C506.596 23.5123 505.253 24.8567 503.596 24.8567 501.939 24.8567 500.596 23.5123 500.596 21.8538 500.596 20.1954 501.939 18.851 503.596 18.851 505.253 18.851 506.596 20.1954 506.596 21.8538Z" stroke="#2F5597" stroke-width="0.999762" stroke-linejoin="round" stroke-miterlimit="10" fill="#4472C4"/><path d="M510.596 21.8538C510.596 23.5123 509.253 24.8567 507.596 24.8567 505.939 24.8567 504.596 23.5123 504.596 21.8538 504.596 20.1954 505.939 18.851 507.596 18.851 509.253 18.851 510.596 20.1954 510.596 21.8538Z" stroke="#2F5597" stroke-width="0.999762" stroke-linejoin="round" stroke-miterlimit="10" fill="#4472C4"/><path d="M513.596 20.8529C513.596 22.5113 512.253 23.8557 510.596 23.8557 508.939 23.8557 507.596 22.5113 507.596 20.8529 507.596 19.1945 508.939 17.8501 510.596 17.8501 512.253 17.8501 513.596 19.1945 513.596 20.8529Z" stroke="#2F5597" stroke-width="0.999762" stroke-linejoin="round" stroke-miterlimit="10" fill="#4472C4"/><path d="M515.596 20.8529C515.596 22.5113 514.253 23.8557 512.596 23.8557 510.939 23.8557 509.596 22.5113 509.596 20.8529 509.596 19.1945 510.939 17.8501 512.596 17.8501 514.253 17.8501 515.596 19.1945 515.596 20.8529Z" stroke="#2F5597" stroke-width="0.999762" stroke-linejoin="round" stroke-miterlimit="10" fill="#4472C4"/><path d="M518.596 20.8529C518.596 22.5113 517.253 23.8557 515.596 23.8557 513.939 23.8557 512.596 22.5113 512.596 20.8529 512.596 19.1945 513.939 17.8501 515.596 17.8501 517.253 17.8501 518.596 19.1945 518.596 20.8529Z" stroke="#2F5597" stroke-width="0.999762" stroke-linejoin="round" stroke-miterlimit="10" fill="#4472C4"/><path d="M533.596 18.8509C533.596 20.5093 532.253 21.8537 530.596 21.8537 528.939 21.8537 527.596 20.5093 527.596 18.8509 527.596 17.1925 528.939 15.8481 530.596 15.8481 532.253 15.8481 533.596 17.1925 533.596 18.8509Z" stroke="#2F5597" stroke-width="0.999762" stroke-linejoin="round" stroke-miterlimit="10" fill="#4472C4"/><path d="M542.596 18.8509C542.596 20.5093 541.253 21.8537 539.596 21.8537 537.939 21.8537 536.596 20.5093 536.596 18.8509 536.596 17.1925 537.939 15.8481 539.596 15.8481 541.253 15.8481 542.596 17.1925 542.596 18.8509Z" stroke="#2F5597" stroke-width="0.999762" stroke-linejoin="round" stroke-miterlimit="10" fill="#4472C4"/><path d="M549.596 18.8509C549.596 20.5093 548.253 21.8537 546.596 21.8537 544.939 21.8537 543.596 20.5093 543.596 18.8509 543.596 17.1925 544.939 15.8481 546.596 15.8481 548.253 15.8481 549.596 17.1925 549.596 18.8509Z" stroke="#2F5597" stroke-width="0.999762" stroke-linejoin="round" stroke-miterlimit="10" fill="#4472C4"/><path d="M554.596 18.8509C554.596 20.5093 553.253 21.8537 551.596 21.8537 549.939 21.8537 548.596 20.5093 548.596 18.8509 548.596 17.1925 549.939 15.8481 551.596 15.8481 553.253 15.8481 554.596 17.1925 554.596 18.8509Z" stroke="#2F5597" stroke-width="0.999762" stroke-linejoin="round" stroke-miterlimit="10" fill="#4472C4"/><path d="M558.596 18.8509C558.596 20.5093 557.253 21.8537 555.596 21.8537 553.939 21.8537 552.596 20.5093 552.596 18.8509 552.596 17.1925 553.939 15.8481 555.596 15.8481 557.253 15.8481 558.596 17.1925 558.596 18.8509Z" stroke="#2F5597" stroke-width="0.999762" stroke-linejoin="round" stroke-miterlimit="10" fill="#4472C4"/><path d="M561.596 17.85C561.596 19.5084 560.253 20.8528 558.596 20.8528 556.939 20.8528 555.596 19.5084 555.596 17.85 555.596 16.1915 556.939 14.8471 558.596 14.8471 560.253 14.8471 561.596 16.1915 561.596 17.85Z" stroke="#2F5597" stroke-width="0.999762" stroke-linejoin="round" stroke-miterlimit="10" fill="#4472C4"/><path d="M564.596 17.85C564.596 19.5084 563.253 20.8528 561.596 20.8528 559.939 20.8528 558.596 19.5084 558.596 17.85 558.596 16.1915 559.939 14.8471 561.596 14.8471 563.253 14.8471 564.596 16.1915 564.596 17.85Z" stroke="#2F5597" stroke-width="0.999762" stroke-linejoin="round" stroke-miterlimit="10" fill="#4472C4"/><path d="M567.596 17.85C567.596 19.5084 566.253 20.8528 564.596 20.8528 562.939 20.8528 561.596 19.5084 561.596 17.85 561.596 16.1915 562.939 14.8471 564.596 14.8471 566.253 14.8471 567.596 16.1915 567.596 17.85Z" stroke="#2F5597" stroke-width="0.999762" stroke-linejoin="round" stroke-miterlimit="10" fill="#4472C4"/><path d="M569.596 17.85C569.596 19.5084 568.253 20.8528 566.596 20.8528 564.939 20.8528 563.596 19.5084 563.596 17.85 563.596 16.1915 564.939 14.8471 566.596 14.8471 568.253 14.8471 569.596 16.1915 569.596 17.85Z" stroke="#2F5597" stroke-width="0.999762" stroke-linejoin="round" stroke-miterlimit="10" fill="#4472C4"/><path d="M585.596 17.85C585.596 19.5084 584.253 20.8528 582.596 20.8528 580.939 20.8528 579.596 19.5084 579.596 17.85 579.596 16.1915 580.939 14.8471 582.596 14.8471 584.253 14.8471 585.596 16.1915 585.596 17.85Z" stroke="#2F5597" stroke-width="0.999762" stroke-linejoin="round" stroke-miterlimit="10" fill="#4472C4"/><path d="M594.596 17.85C594.596 19.5084 593.253 20.8528 591.596 20.8528 589.939 20.8528 588.596 19.5084 588.596 17.85 588.596 16.1915 589.939 14.8471 591.596 14.8471 593.253 14.8471 594.596 16.1915 594.596 17.85Z" stroke="#2F5597" stroke-width="0.999762" stroke-linejoin="round" stroke-miterlimit="10" fill="#4472C4"/><path d="M600.596 17.85C600.596 19.5084 599.253 20.8528 597.596 20.8528 595.939 20.8528 594.596 19.5084 594.596 17.85 594.596 16.1915 595.939 14.8471 597.596 14.8471 599.253 14.8471 600.596 16.1915 600.596 17.85Z" stroke="#2F5597" stroke-width="0.999762" stroke-linejoin="round" stroke-miterlimit="10" fill="#4472C4"/><path d="M605.596 17.85C605.596 19.5084 604.253 20.8528 602.596 20.8528 600.939 20.8528 599.596 19.5084 599.596 17.85 599.596 16.1915 600.939 14.8471 602.596 14.8471 604.253 14.8471 605.596 16.1915 605.596 17.85Z" stroke="#2F5597" stroke-width="0.999762" stroke-linejoin="round" stroke-miterlimit="10" fill="#4472C4"/><path d="M610.596 17.85C610.596 19.5084 609.253 20.8528 607.596 20.8528 605.939 20.8528 604.596 19.5084 604.596 17.85 604.596 16.1915 605.939 14.8471 607.596 14.8471 609.253 14.8471 610.596 16.1915 610.596 17.85Z" stroke="#2F5597" stroke-width="0.999762" stroke-linejoin="round" stroke-miterlimit="10" fill="#4472C4"/><path d="M613.596 17.85C613.596 19.5084 612.253 20.8528 610.596 20.8528 608.939 20.8528 607.596 19.5084 607.596 17.85 607.596 16.1915 608.939 14.8471 610.596 14.8471 612.253 14.8471 613.596 16.1915 613.596 17.85Z" stroke="#2F5597" stroke-width="0.999762" stroke-linejoin="round" stroke-miterlimit="10" fill="#4472C4"/><path d="M616.596 17.85C616.596 19.5084 615.253 20.8528 613.596 20.8528 611.939 20.8528 610.596 19.5084 610.596 17.85 610.596 16.1915 611.939 14.8471 613.596 14.8471 615.253 14.8471 616.596 16.1915 616.596 17.85Z" stroke="#2F5597" stroke-width="0.999762" stroke-linejoin="round" stroke-miterlimit="10" fill="#4472C4"/><path d="M619.596 17.85C619.596 19.5084 618.253 20.8528 616.596 20.8528 614.939 20.8528 613.596 19.5084 613.596 17.85 613.596 16.1915 614.939 14.8471 616.596 14.8471 618.253 14.8471 619.596 16.1915 619.596 17.85Z" stroke="#2F5597" stroke-width="0.999762" stroke-linejoin="round" stroke-miterlimit="10" fill="#4472C4"/><path d="M621.596 17.85C621.596 19.5084 620.253 20.8528 618.596 20.8528 616.939 20.8528 615.596 19.5084 615.596 17.85 615.596 16.1915 616.939 14.8471 618.596 14.8471 620.253 14.8471 621.596 16.1915 621.596 17.85Z" stroke="#2F5597" stroke-width="0.999762" stroke-linejoin="round" stroke-miterlimit="10" fill="#4472C4"/><path d="M636.596 17.85C636.596 19.5084 635.253 20.8528 633.596 20.8528 631.939 20.8528 630.596 19.5084 630.596 17.85 630.596 16.1915 631.939 14.8471 633.596 14.8471 635.253 14.8471 636.596 16.1915 636.596 17.85Z" stroke="#2F5597" stroke-width="0.999762" stroke-linejoin="round" stroke-miterlimit="10" fill="#4472C4"/><path d="M646.596 17.85C646.596 19.5084 645.253 20.8528 643.596 20.8528 641.939 20.8528 640.596 19.5084 640.596 17.85 640.596 16.1915 641.939 14.8471 643.596 14.8471 645.253 14.8471 646.596 16.1915 646.596 17.85Z" stroke="#2F5597" stroke-width="0.999762" stroke-linejoin="round" stroke-miterlimit="10" fill="#4472C4"/><path d="M652.596 17.85C652.596 19.5084 651.253 20.8528 649.596 20.8528 647.939 20.8528 646.596 19.5084 646.596 17.85 646.596 16.1915 647.939 14.8471 649.596 14.8471 651.253 14.8471 652.596 16.1915 652.596 17.85Z" stroke="#2F5597" stroke-width="0.999762" stroke-linejoin="round" stroke-miterlimit="10" fill="#4472C4"/><path d="M657.596 17.85C657.596 19.5084 656.253 20.8528 654.596 20.8528 652.939 20.8528 651.596 19.5084 651.596 17.85 651.596 16.1915 652.939 14.8471 654.596 14.8471 656.253 14.8471 657.596 16.1915 657.596 17.85Z" stroke="#2F5597" stroke-width="0.999762" stroke-linejoin="round" stroke-miterlimit="10" fill="#4472C4"/><path d="M661.596 17.85C661.596 19.5084 660.253 20.8528 658.596 20.8528 656.939 20.8528 655.596 19.5084 655.596 17.85 655.596 16.1915 656.939 14.8471 658.596 14.8471 660.253 14.8471 661.596 16.1915 661.596 17.85Z" stroke="#2F5597" stroke-width="0.999762" stroke-linejoin="round" stroke-miterlimit="10" fill="#4472C4"/><path d="M665.596 17.85C665.596 19.5084 664.253 20.8528 662.596 20.8528 660.939 20.8528 659.596 19.5084 659.596 17.85 659.596 16.1915 660.939 14.8471 662.596 14.8471 664.253 14.8471 665.596 16.1915 665.596 17.85Z" stroke="#2F5597" stroke-width="0.999762" stroke-linejoin="round" stroke-miterlimit="10" fill="#4472C4"/><path d="M668.596 17.85C668.596 19.5084 667.253 20.8528 665.596 20.8528 663.939 20.8528 662.596 19.5084 662.596 17.85 662.596 16.1915 663.939 14.8471 665.596 14.8471 667.253 14.8471 668.596 16.1915 668.596 17.85Z" stroke="#2F5597" stroke-width="0.999762" stroke-linejoin="round" stroke-miterlimit="10" fill="#4472C4"/><path d="M670.596 17.85C670.596 19.5084 669.253 20.8528 667.596 20.8528 665.939 20.8528 664.596 19.5084 664.596 17.85 664.596 16.1915 665.939 14.8471 667.596 14.8471 669.253 14.8471 670.596 16.1915 670.596 17.85Z" stroke="#2F5597" stroke-width="0.999762" stroke-linejoin="round" stroke-miterlimit="10" fill="#4472C4"/><path d="M673.596 17.85C673.596 19.5084 672.253 20.8528 670.596 20.8528 668.939 20.8528 667.596 19.5084 667.596 17.85 667.596 16.1915 668.939 14.8471 670.596 14.8471 672.253 14.8471 673.596 16.1915 673.596 17.85Z" stroke="#2F5597" stroke-width="0.999762" stroke-linejoin="round" stroke-miterlimit="10" fill="#4472C4"/></g><g clip-path="url(#clip35)"><path d="M412 120.117 427.988 92.0869 436.988 75.0709 442.987 65.0614 447.987 58.0548 451.987 53.0501 455.987 48.0454 458.987 45.0425 460.987 43.0406 463.987 41.0387 478.986 30.0283 487.986 26.0246 494.986 24.0227 499.986 23.0217 503.986 22.0208 506.986 22.0208 509.985 21.0198 512.985 21.0198 514.985 20.0189 530.985 19.018 539.985 19.018 545.984 18.017 550.984 18.017 554.984 18.017 558.984 18.017 561.984 18.017 564.984 18.017 566.984 18.017 581.983 18.017 591.983 18.017 597.983 18.017 602.983 18.017 606.983 18.017 609.983 18.017 612.983 18.017 615.982 18.017 617.982 18.017 633.982 18.017 642.982 18.017 649.982 18.017 654.981 18.017 658.981 18.017 661.981 18.017 664.981 18.017 667.981 18.017 670 18.0175" stroke="#E66914" stroke-width="1.99952" stroke-linecap="round" stroke-linejoin="round" stroke-miterlimit="10" fill="none"/></g><g clip-path="url(#clip36)"><path d="M415.096 123.453 409.096 117.447M409.096 123.453 415.096 117.447" stroke="#E66914" stroke-width="1.99952" stroke-linejoin="round" stroke-miterlimit="10" fill="none"/><path d="M431.096 95.4252 425.096 89.4196M425.096 95.4252 431.096 89.4196" stroke="#E66914" stroke-width="1.99952" stroke-linejoin="round" stroke-miterlimit="10" fill="none"/><path d="M440.096 78.4088 434.096 72.4031M434.096 78.4088 440.096 72.4031" stroke="#E66914" stroke-width="1.99952" stroke-linejoin="round" stroke-miterlimit="10" fill="none"/><path d="M446.096 68.399 440.096 62.3933M440.096 68.399 446.096 62.3933" stroke="#E66914" stroke-width="1.99952" stroke-linejoin="round" stroke-miterlimit="10" fill="none"/><path d="M451.096 61.3922 445.096 55.3865M445.096 61.3922 451.096 55.3865" stroke="#E66914" stroke-width="1.99952" stroke-linejoin="round" stroke-miterlimit="10" fill="none"/><path d="M455.096 56.3873 449.096 50.3817M449.096 56.3873 455.096 50.3817" stroke="#E66914" stroke-width="1.99952" stroke-linejoin="round" stroke-miterlimit="10" fill="none"/><path d="M459.096 51.3825 453.096 45.3768M453.096 51.3825 459.096 45.3768" stroke="#E66914" stroke-width="1.99952" stroke-linejoin="round" stroke-miterlimit="10" fill="none"/><path d="M462.096 48.3796 456.096 42.3739M456.096 48.3796 462.096 42.3739" stroke="#E66914" stroke-width="1.99952" stroke-linejoin="round" stroke-miterlimit="10" fill="none"/><path d="M464.096 46.3776 458.096 40.3719M458.096 46.3776 464.096 40.3719" stroke="#E66914" stroke-width="1.99952" stroke-linejoin="round" stroke-miterlimit="10" fill="none"/><path d="M467.096 44.3757 461.096 38.37M461.096 44.3757 467.096 38.37" stroke="#E66914" stroke-width="1.99952" stroke-linejoin="round" stroke-miterlimit="10" fill="none"/><path d="M482.096 33.365 476.096 27.3593M476.096 33.365 482.096 27.3593" stroke="#E66914" stroke-width="1.99952" stroke-linejoin="round" stroke-miterlimit="10" fill="none"/><path d="M491.096 29.3611 485.096 23.3554M485.096 29.3611 491.096 23.3554" stroke="#E66914" stroke-width="1.99952" stroke-linejoin="round" stroke-miterlimit="10" fill="none"/><path d="M498.096 27.3591 492.096 21.3534M492.096 27.3591 498.096 21.3534" stroke="#E66914" stroke-width="1.99952" stroke-linejoin="round" stroke-miterlimit="10" fill="none"/><path d="M503.096 26.3581 497.096 20.3525M497.096 26.3581 503.096 20.3525" stroke="#E66914" stroke-width="1.99952" stroke-linejoin="round" stroke-miterlimit="10" fill="none"/><path d="M507.096 25.3571 501.096 19.3514M501.096 25.3571 507.096 19.3514" stroke="#E66914" stroke-width="1.99952" stroke-linejoin="round" stroke-miterlimit="10" fill="none"/><path d="M510.096 25.3571 504.096 19.3514M504.096 25.3571 510.096 19.3514" stroke="#E66914" stroke-width="1.99952" stroke-linejoin="round" stroke-miterlimit="10" fill="none"/><path d="M513.096 24.3561 507.096 18.3505M507.096 24.3561 513.096 18.3505" stroke="#E66914" stroke-width="1.99952" stroke-linejoin="round" stroke-miterlimit="10" fill="none"/><path d="M516.096 24.3561 510.096 18.3505M510.096 24.3561 516.096 18.3505" stroke="#E66914" stroke-width="1.99952" stroke-linejoin="round" stroke-miterlimit="10" fill="none"/><path d="M518.096 23.3552 512.096 17.3495M512.096 23.3552 518.096 17.3495" stroke="#E66914" stroke-width="1.99952" stroke-linejoin="round" stroke-miterlimit="10" fill="none"/><path d="M534.096 22.3543 528.096 16.3486M528.096 22.3543 534.096 16.3486" stroke="#E66914" stroke-width="1.99952" stroke-linejoin="round" stroke-miterlimit="10" fill="none"/><path d="M543.096 22.3543 537.096 16.3486M537.096 22.3543 543.096 16.3486" stroke="#E66914" stroke-width="1.99952" stroke-linejoin="round" stroke-miterlimit="10" fill="none"/><path d="M549.096 21.3532 543.096 15.3475M543.096 21.3532 549.096 15.3475" stroke="#E66914" stroke-width="1.99952" stroke-linejoin="round" stroke-miterlimit="10" fill="none"/><path d="M554.096 21.3532 548.096 15.3475M548.096 21.3532 554.096 15.3475" stroke="#E66914" stroke-width="1.99952" stroke-linejoin="round" stroke-miterlimit="10" fill="none"/><path d="M558.096 21.3532 552.096 15.3475M552.096 21.3532 558.096 15.3475" stroke="#E66914" stroke-width="1.99952" stroke-linejoin="round" stroke-miterlimit="10" fill="none"/><path d="M562.096 21.3532 556.096 15.3475M556.096 21.3532 562.096 15.3475" stroke="#E66914" stroke-width="1.99952" stroke-linejoin="round" stroke-miterlimit="10" fill="none"/><path d="M565.096 21.3532 559.096 15.3475M559.096 21.3532 565.096 15.3475" stroke="#E66914" stroke-width="1.99952" stroke-linejoin="round" stroke-miterlimit="10" fill="none"/><path d="M568.096 21.3532 562.096 15.3475M562.096 21.3532 568.096 15.3475" stroke="#E66914" stroke-width="1.99952" stroke-linejoin="round" stroke-miterlimit="10" fill="none"/><path d="M570.096 21.3532 564.096 15.3475M564.096 21.3532 570.096 15.3475" stroke="#E66914" stroke-width="1.99952" stroke-linejoin="round" stroke-miterlimit="10" fill="none"/><path d="M585.096 21.3532 579.096 15.3475M579.096 21.3532 585.096 15.3475" stroke="#E66914" stroke-width="1.99952" stroke-linejoin="round" stroke-miterlimit="10" fill="none"/><path d="M594.096 21.3532 588.096 15.3475M588.096 21.3532 594.096 15.3475" stroke="#E66914" stroke-width="1.99952" stroke-linejoin="round" stroke-miterlimit="10" fill="none"/><path d="M601.096 21.3532 595.096 15.3475M595.096 21.3532 601.096 15.3475" stroke="#E66914" stroke-width="1.99952" stroke-linejoin="round" stroke-miterlimit="10" fill="none"/><path d="M606.096 21.3532 600.096 15.3475M600.096 21.3532 606.096 15.3475" stroke="#E66914" stroke-width="1.99952" stroke-linejoin="round" stroke-miterlimit="10" fill="none"/><path d="M610.096 21.3532 604.096 15.3475M604.096 21.3532 610.096 15.3475" stroke="#E66914" stroke-width="1.99952" stroke-linejoin="round" stroke-miterlimit="10" fill="none"/><path d="M613.096 21.3532 607.096 15.3475M607.096 21.3532 613.096 15.3475" stroke="#E66914" stroke-width="1.99952" stroke-linejoin="round" stroke-miterlimit="10" fill="none"/><path d="M616.096 21.3532 610.096 15.3475M610.096 21.3532 616.096 15.3475" stroke="#E66914" stroke-width="1.99952" stroke-linejoin="round" stroke-miterlimit="10" fill="none"/><path d="M619.096 21.3532 613.096 15.3475M613.096 21.3532 619.096 15.3475" stroke="#E66914" stroke-width="1.99952" stroke-linejoin="round" stroke-miterlimit="10" fill="none"/><path d="M621.096 21.3532 615.096 15.3475M615.096 21.3532 621.096 15.3475" stroke="#E66914" stroke-width="1.99952" stroke-linejoin="round" stroke-miterlimit="10" fill="none"/><path d="M637.096 21.3532 631.096 15.3475M631.096 21.3532 637.096 15.3475" stroke="#E66914" stroke-width="1.99952" stroke-linejoin="round" stroke-miterlimit="10" fill="none"/><path d="M646.096 21.3532 640.096 15.3475M640.096 21.3532 646.096 15.3475" stroke="#E66914" stroke-width="1.99952" stroke-linejoin="round" stroke-miterlimit="10" fill="none"/><path d="M652.096 21.3532 646.096 15.3475M646.096 21.3532 652.096 15.3475" stroke="#E66914" stroke-width="1.99952" stroke-linejoin="round" stroke-miterlimit="10" fill="none"/><path d="M657.096 21.3532 651.096 15.3475M651.096 21.3532 657.096 15.3475" stroke="#E66914" stroke-width="1.99952" stroke-linejoin="round" stroke-miterlimit="10" fill="none"/><path d="M662.096 21.3532 656.096 15.3475M656.096 21.3532 662.096 15.3475" stroke="#E66914" stroke-width="1.99952" stroke-linejoin="round" stroke-miterlimit="10" fill="none"/><path d="M665.096 21.3532 659.096 15.3475M659.096 21.3532 665.096 15.3475" stroke="#E66914" stroke-width="1.99952" stroke-linejoin="round" stroke-miterlimit="10" fill="none"/><path d="M668.096 21.3532 662.096 15.3475M662.096 21.3532 668.096 15.3475" stroke="#E66914" stroke-width="1.99952" stroke-linejoin="round" stroke-miterlimit="10" fill="none"/><path d="M671.096 21.3532 665.096 15.3475M665.096 21.3532 671.096 15.3475" stroke="#E66914" stroke-width="1.99952" stroke-linejoin="round" stroke-miterlimit="10" fill="none"/><path d="M673.096 21.3532 667.096 15.3475M667.096 21.3532 673.096 15.3475" stroke="#E66914" stroke-width="1.99952" stroke-linejoin="round" stroke-miterlimit="10" fill="none"/></g><g clip-path="url(#clip37)"><text font-family="Cambria Math,Cambria Math_MSFontService,sans-serif" font-weight="400" font-size="15" transform="matrix(1 0 0 1.00097 379.761 151)">0.7</text></g><g clip-path="url(#clip38)"><text font-family="Cambria Math,Cambria Math_MSFontService,sans-serif" font-weight="400" font-size="15" transform="matrix(1 0 0 1.00097 379.761 108)">0.8</text></g><g clip-path="url(#clip39)"><text font-family="Cambria Math,Cambria Math_MSFontService,sans-serif" font-weight="400" font-size="15" transform="matrix(1 0 0 1.00097 379.761 65)">0.9</text></g><g clip-path="url(#clip40)"><text font-family="Cambria Math,Cambria Math_MSFontService,sans-serif" font-weight="400" font-size="15" transform="matrix(1 0 0 1.00097 390.885 22)">1</text></g><g clip-path="url(#clip41)"><text font-family="Cambria Math,Cambria Math_MSFontService,sans-serif" font-weight="400" font-size="15" transform="matrix(1 0 0 1.00097 408.182 169)">1</text></g><g clip-path="url(#clip42)"><text font-family="Cambria Math,Cambria Math_MSFontService,sans-serif" font-weight="400" font-size="15" transform="matrix(1 0 0 1.00097 455.676 169)">10</text></g><g clip-path="url(#clip43)"><text font-family="Cambria Math,Cambria Math_MSFontService,sans-serif" font-weight="400" font-size="15" transform="matrix(1 0 0 1.00097 503.169 169)">100</text></g><g clip-path="url(#clip44)"><text font-family="Cambria Math,Cambria Math_MSFontService,sans-serif" font-weight="400" font-size="15" transform="matrix(1 0 0 1.00097 550.663 169)">1000</text></g><g clip-path="url(#clip45)"><text font-family="Cambria Math,Cambria Math_MSFontService,sans-serif" font-weight="400" font-size="15" transform="matrix(1 0 0 1.00097 598.157 169)">10000</text></g><g clip-path="url(#clip46)"><text font-family="Cambria Math,Cambria Math_MSFontService,sans-serif" font-weight="400" font-size="15" transform="matrix(1 0 0 1.00097 645.651 169)">100000</text></g><g clip-path="url(#clip47)"><path d="M572 92.0896 597 92.0897" stroke="#2F5597" stroke-width="1.99952" stroke-linecap="round" stroke-linejoin="round" stroke-miterlimit="10" fill="none" fill-rule="evenodd"/></g><g clip-path="url(#clip48)"><path d="M587.071 92.0894C587.071 93.7478 585.92 95.0923 584.5 95.0923 583.08 95.0923 581.929 93.7478 581.929 92.0894 581.929 90.431 583.08 89.0865 584.5 89.0865 585.92 89.0865 587.071 90.431 587.071 92.0894Z" stroke="#2F5597" stroke-width="0.999762" stroke-linejoin="round" stroke-miterlimit="10" fill="#4472C4"/></g><g clip-path="url(#clip49)"><text font-family="Cambria Math,Cambria Math_MSFontService,sans-serif" font-weight="400" font-size="15" transform="matrix(1 0 0 1.00097 600.133 97)">Exact</text></g><g clip-path="url(#clip50)"><path d="M572 115.112 597 115.112" stroke="#E66914" stroke-width="1.99952" stroke-linecap="round" stroke-linejoin="round" stroke-miterlimit="10" fill="none" fill-rule="evenodd"/></g><g clip-path="url(#clip51)"><path d="M587 117.114 581 111.108M581 117.114 587 111.108" stroke="#E66914" stroke-width="1.99952" stroke-linejoin="round" stroke-miterlimit="10" fill="none"/></g><g clip-path="url(#clip52)"><text font-family="Cambria Math,Cambria Math_MSFontService,sans-serif" font-weight="400" font-size="15" transform="matrix(1 0 0 1.00097 600.133 120)">Approx.</text></g><text font-family="Cambria Math,Cambria Math_MSFontService,sans-serif" font-weight="400" font-size="15" transform="matrix(1 0 0 1.00097 515.313 195)">Index:</text><text font-family="Cambria Math,Cambria Math_MSFontService,sans-serif" font-weight="400" font-size="15" transform="matrix(1 0 0 1.00097 558.636 195)">ğ‘˜</text><text font-family="Cambria Math,Cambria Math_MSFontService,sans-serif" font-weight="400" font-size="15" transform="matrix(-1.83697e-16 -1.00195 0.999028 -1.83876e-16 366.294 105)">CDF(</text><text font-family="Cambria Math,Cambria Math_MSFontService,sans-serif" font-weight="400" font-size="15" transform="matrix(-1.83697e-16 -1.00195 0.999028 -1.83876e-16 366.294 73)">ğ‘˜</text><text font-family="Cambria Math,Cambria Math_MSFontService,sans-serif" font-weight="400" font-size="15" transform="matrix(-1.83697e-16 -1.00195 0.999028 -1.83876e-16 366.294 64)">)</text><text font-family="Cambria Math,Cambria Math_MSFontService,sans-serif" font-weight="400" font-size="16" transform="matrix(1 0 0 1.00097 456.662 219)">(b) Skew factor = 2.0</text></g></svg>